<svg class="main-svg" xmlns="http://www.w3.org/2000/svg" xmlns:xlink="http://www.w3.org/1999/xlink" width="700" height="700" style="" viewBox="0 0 700 700"><rect x="0" y="0" width="700" height="700" style="fill: rgb(255, 255, 255); fill-opacity: 1;"/><defs id="defs-04cbfc"><g class="clips"><clipPath id="clip04cbfcxyplot" class="plotclip"><rect width="417" height="234"/></clipPath><clipPath id="clip04cbfcx2y2plot" class="plotclip"><rect width="417" height="233.99999999999997"/></clipPath><clipPath class="axesclip" id="clip04cbfcx"><rect x="80" y="0" width="417" height="700"/></clipPath><clipPath class="axesclip" id="clip04cbfcy"><rect x="0" y="386" width="700" height="234"/></clipPath><clipPath class="axesclip" id="clip04cbfcxy"><rect x="80" y="386" width="417" height="234"/></clipPath><clipPath class="axesclip" id="clip04cbfcy2"><rect x="0" y="100" width="700" height="233.99999999999997"/></clipPath><clipPath class="axesclip" id="clip04cbfcxy2"><rect x="80" y="100" width="417" height="233.99999999999997"/></clipPath><clipPath class="axesclip" id="clip04cbfcx2"><rect x="80" y="0" width="417" height="700"/></clipPath><clipPath class="axesclip" id="clip04cbfcx2y"><rect x="80" y="386" width="417" height="234"/></clipPath><clipPath class="axesclip" id="clip04cbfcx2y2"><rect x="80" y="100" width="417" height="233.99999999999997"/></clipPath></g><g class="gradients"/></defs><g class="bglayer"/><g class="layer-below"><g class="imagelayer"/><g class="shapelayer"/></g><g class="cartesianlayer"><g class="subplot xy"><g class="layer-subplot"><g class="shapelayer"/><g class="imagelayer"/></g><g class="gridlayer"><g class="x"><path class="xgrid crisp" transform="translate(104.6,0)" d="M0,386v234" style="stroke: rgb(238, 238, 238); stroke-opacity: 1; stroke-width: 1px;"/><path class="xgrid crisp" transform="translate(138.04,0)" d="M0,386v234" style="stroke: rgb(238, 238, 238); stroke-opacity: 1; stroke-width: 1px;"/><path class="xgrid crisp" transform="translate(171.47,0)" d="M0,386v234" style="stroke: rgb(238, 238, 238); stroke-opacity: 1; stroke-width: 1px;"/><path class="xgrid crisp" transform="translate(204.91,0)" d="M0,386v234" style="stroke: rgb(238, 238, 238); stroke-opacity: 1; stroke-width: 1px;"/><path class="xgrid crisp" transform="translate(238.35,0)" d="M0,386v234" style="stroke: rgb(238, 238, 238); stroke-opacity: 1; stroke-width: 1px;"/><path class="xgrid crisp" transform="translate(271.78,0)" d="M0,386v234" style="stroke: rgb(238, 238, 238); stroke-opacity: 1; stroke-width: 1px;"/><path class="xgrid crisp" transform="translate(305.22,0)" d="M0,386v234" style="stroke: rgb(238, 238, 238); stroke-opacity: 1; stroke-width: 1px;"/><path class="xgrid crisp" transform="translate(338.65,0)" d="M0,386v234" style="stroke: rgb(238, 238, 238); stroke-opacity: 1; stroke-width: 1px;"/><path class="xgrid crisp" transform="translate(372.09,0)" d="M0,386v234" style="stroke: rgb(238, 238, 238); stroke-opacity: 1; stroke-width: 1px;"/><path class="xgrid crisp" transform="translate(405.53,0)" d="M0,386v234" style="stroke: rgb(238, 238, 238); stroke-opacity: 1; stroke-width: 1px;"/><path class="xgrid crisp" transform="translate(438.96,0)" d="M0,386v234" style="stroke: rgb(238, 238, 238); stroke-opacity: 1; stroke-width: 1px;"/><path class="xgrid crisp" transform="translate(472.4,0)" d="M0,386v234" style="stroke: rgb(238, 238, 238); stroke-opacity: 1; stroke-width: 1px;"/></g><g class="y"><path class="ygrid crisp" transform="translate(0,613.64)" d="M80,0h417" style="stroke: rgb(238, 238, 238); stroke-opacity: 1; stroke-width: 1px;"/><path class="ygrid crisp" transform="translate(0,547.76)" d="M80,0h417" style="stroke: rgb(238, 238, 238); stroke-opacity: 1; stroke-width: 1px;"/><path class="ygrid crisp" transform="translate(0,481.89)" d="M80,0h417" style="stroke: rgb(238, 238, 238); stroke-opacity: 1; stroke-width: 1px;"/><path class="ygrid crisp" transform="translate(0,416.01)" d="M80,0h417" style="stroke: rgb(238, 238, 238); stroke-opacity: 1; stroke-width: 1px;"/></g></g><g class="zerolinelayer"/><path class="xlines-below"/><path class="ylines-below"/><g class="overlines-below"/><g class="xaxislayer-below"/><g class="yaxislayer-below"/><g class="overaxes-below"/><g class="plot" transform="translate(80,386)" clip-path="url('#clip04cbfcxyplot')"><g class="scatterlayer mlayer"><g class="trace scatter trace2429b5" style="stroke-miterlimit: 2; opacity: 1;"><g class="fills"/><g class="errorbars"/><g class="lines"><path class="js-line" d="M24.6,128.9L58.04,121.72L91.47,121.22L124.91,112.6L158.35,92.49L191.78,81.81L225.22,61.5L258.65,89.9L292.09,61.09L325.53,49.42L358.96,36.08L392.4,15.45" style="vector-effect: non-scaling-stroke; fill: none; stroke: rgb(255, 165, 0); stroke-opacity: 1; stroke-width: 2px; opacity: 1; stroke-dasharray: 3px, 3px;"/></g><g class="points"><path class="point" transform="translate(24.6,128.9)" d="M3,0A3,3 0 1,1 0,-3A3,3 0 0,1 3,0Z" style="opacity: 1; stroke-width: 0px; fill: rgb(255, 165, 0); fill-opacity: 1;"/><path class="point" transform="translate(58.04,121.72)" d="M3,0A3,3 0 1,1 0,-3A3,3 0 0,1 3,0Z" style="opacity: 1; stroke-width: 0px; fill: rgb(255, 165, 0); fill-opacity: 1;"/><path class="point" transform="translate(91.47,121.22)" d="M3,0A3,3 0 1,1 0,-3A3,3 0 0,1 3,0Z" style="opacity: 1; stroke-width: 0px; fill: rgb(255, 165, 0); fill-opacity: 1;"/><path class="point" transform="translate(124.91,112.6)" d="M3,0A3,3 0 1,1 0,-3A3,3 0 0,1 3,0Z" style="opacity: 1; stroke-width: 0px; fill: rgb(255, 165, 0); fill-opacity: 1;"/><path class="point" transform="translate(158.35,92.49)" d="M3,0A3,3 0 1,1 0,-3A3,3 0 0,1 3,0Z" style="opacity: 1; stroke-width: 0px; fill: rgb(255, 165, 0); fill-opacity: 1;"/><path class="point" transform="translate(191.78,81.81)" d="M3,0A3,3 0 1,1 0,-3A3,3 0 0,1 3,0Z" style="opacity: 1; stroke-width: 0px; fill: rgb(255, 165, 0); fill-opacity: 1;"/><path class="point" transform="translate(225.22,61.5)" d="M3,0A3,3 0 1,1 0,-3A3,3 0 0,1 3,0Z" style="opacity: 1; stroke-width: 0px; fill: rgb(255, 165, 0); fill-opacity: 1;"/><path class="point" transform="translate(258.65,89.9)" d="M3,0A3,3 0 1,1 0,-3A3,3 0 0,1 3,0Z" style="opacity: 1; stroke-width: 0px; fill: rgb(255, 165, 0); fill-opacity: 1;"/><path class="point" transform="translate(292.09,61.09)" d="M3,0A3,3 0 1,1 0,-3A3,3 0 0,1 3,0Z" style="opacity: 1; stroke-width: 0px; fill: rgb(255, 165, 0); fill-opacity: 1;"/><path class="point" transform="translate(325.53,49.42)" d="M3,0A3,3 0 1,1 0,-3A3,3 0 0,1 3,0Z" style="opacity: 1; stroke-width: 0px; fill: rgb(255, 165, 0); fill-opacity: 1;"/><path class="point" transform="translate(358.96,36.08)" d="M3,0A3,3 0 1,1 0,-3A3,3 0 0,1 3,0Z" style="opacity: 1; stroke-width: 0px; fill: rgb(255, 165, 0); fill-opacity: 1;"/><path class="point" transform="translate(392.4,15.45)" d="M3,0A3,3 0 1,1 0,-3A3,3 0 0,1 3,0Z" style="opacity: 1; stroke-width: 0px; fill: rgb(255, 165, 0); fill-opacity: 1;"/></g><g class="text"/></g><g class="trace scatter trace0694ea" style="stroke-miterlimit: 2; opacity: 1;"><g class="fills"/><g class="errorbars"/><g class="lines"><path class="js-line" d="M24.6,218.55L58.04,214.05L91.47,212.34L124.91,208.2L158.35,188.57L191.78,179.55L225.22,164.43L258.65,186.23L292.09,190.4L325.53,180.87L358.96,174.34L392.4,170.86" style="vector-effect: non-scaling-stroke; fill: none; stroke: rgb(255, 165, 0); stroke-opacity: 1; stroke-width: 2px; opacity: 1;"/></g><g class="points"><path class="point" transform="translate(24.6,218.55)" d="M3,0A3,3 0 1,1 0,-3A3,3 0 0,1 3,0Z" style="opacity: 1; stroke-width: 0px; fill: rgb(255, 165, 0); fill-opacity: 1;"/><path class="point" transform="translate(58.04,214.05)" d="M3,0A3,3 0 1,1 0,-3A3,3 0 0,1 3,0Z" style="opacity: 1; stroke-width: 0px; fill: rgb(255, 165, 0); fill-opacity: 1;"/><path class="point" transform="translate(91.47,212.34)" d="M3,0A3,3 0 1,1 0,-3A3,3 0 0,1 3,0Z" style="opacity: 1; stroke-width: 0px; fill: rgb(255, 165, 0); fill-opacity: 1;"/><path class="point" transform="translate(124.91,208.2)" d="M3,0A3,3 0 1,1 0,-3A3,3 0 0,1 3,0Z" style="opacity: 1; stroke-width: 0px; fill: rgb(255, 165, 0); fill-opacity: 1;"/><path class="point" transform="translate(158.35,188.57)" d="M3,0A3,3 0 1,1 0,-3A3,3 0 0,1 3,0Z" style="opacity: 1; stroke-width: 0px; fill: rgb(255, 165, 0); fill-opacity: 1;"/><path class="point" transform="translate(191.78,179.55)" d="M3,0A3,3 0 1,1 0,-3A3,3 0 0,1 3,0Z" style="opacity: 1; stroke-width: 0px; fill: rgb(255, 165, 0); fill-opacity: 1;"/><path class="point" transform="translate(225.22,164.43)" d="M3,0A3,3 0 1,1 0,-3A3,3 0 0,1 3,0Z" style="opacity: 1; stroke-width: 0px; fill: rgb(255, 165, 0); fill-opacity: 1;"/><path class="point" transform="translate(258.65,186.23)" d="M3,0A3,3 0 1,1 0,-3A3,3 0 0,1 3,0Z" style="opacity: 1; stroke-width: 0px; fill: rgb(255, 165, 0); fill-opacity: 1;"/><path class="point" transform="translate(292.09,190.4)" d="M3,0A3,3 0 1,1 0,-3A3,3 0 0,1 3,0Z" style="opacity: 1; stroke-width: 0px; fill: rgb(255, 165, 0); fill-opacity: 1;"/><path class="point" transform="translate(325.53,180.87)" d="M3,0A3,3 0 1,1 0,-3A3,3 0 0,1 3,0Z" style="opacity: 1; stroke-width: 0px; fill: rgb(255, 165, 0); fill-opacity: 1;"/><path class="point" transform="translate(358.96,174.34)" d="M3,0A3,3 0 1,1 0,-3A3,3 0 0,1 3,0Z" style="opacity: 1; stroke-width: 0px; fill: rgb(255, 165, 0); fill-opacity: 1;"/><path class="point" transform="translate(392.4,170.86)" d="M3,0A3,3 0 1,1 0,-3A3,3 0 0,1 3,0Z" style="opacity: 1; stroke-width: 0px; fill: rgb(255, 165, 0); fill-opacity: 1;"/></g><g class="text"/></g></g></g><g class="overplot"/><path class="xlines-above crisp" d="M0,0" style="fill: none;"/><path class="ylines-above crisp" d="M0,0" style="fill: none;"/><g class="overlines-above"/><g class="xaxislayer-above"><g class="xtick"><text text-anchor="start" x="0" y="633" transform="translate(104.6,0) rotate(30,0,627)" style="font-family: 'Open Sans', verdana, arial, sans-serif; font-size: 12px; fill: rgb(68, 68, 68); fill-opacity: 1; white-space: pre;">June</text></g><g class="xtick"><text text-anchor="start" x="0" y="633" transform="translate(138.04,0) rotate(30,0,627)" style="font-family: 'Open Sans', verdana, arial, sans-serif; font-size: 12px; fill: rgb(68, 68, 68); fill-opacity: 1; white-space: pre;">July</text></g><g class="xtick"><text text-anchor="start" x="0" y="633" transform="translate(171.47,0) rotate(30,0,627)" style="font-family: 'Open Sans', verdana, arial, sans-serif; font-size: 12px; fill: rgb(68, 68, 68); fill-opacity: 1; white-space: pre;">August</text></g><g class="xtick"><text text-anchor="start" x="0" y="633" transform="translate(204.91,0) rotate(30,0,627)" style="font-family: 'Open Sans', verdana, arial, sans-serif; font-size: 12px; fill: rgb(68, 68, 68); fill-opacity: 1; white-space: pre;">September</text></g><g class="xtick"><text text-anchor="start" x="0" y="633" transform="translate(238.35,0) rotate(30,0,627)" style="font-family: 'Open Sans', verdana, arial, sans-serif; font-size: 12px; fill: rgb(68, 68, 68); fill-opacity: 1; white-space: pre;">October</text></g><g class="xtick"><text text-anchor="start" x="0" y="633" transform="translate(271.78,0) rotate(30,0,627)" style="font-family: 'Open Sans', verdana, arial, sans-serif; font-size: 12px; fill: rgb(68, 68, 68); fill-opacity: 1; white-space: pre;">November</text></g><g class="xtick"><text text-anchor="start" x="0" y="633" transform="translate(305.22,0) rotate(30,0,627)" style="font-family: 'Open Sans', verdana, arial, sans-serif; font-size: 12px; fill: rgb(68, 68, 68); fill-opacity: 1; white-space: pre;">December</text></g><g class="xtick"><text text-anchor="start" x="0" y="633" transform="translate(338.65,0) rotate(30,0,627)" style="font-family: 'Open Sans', verdana, arial, sans-serif; font-size: 12px; fill: rgb(68, 68, 68); fill-opacity: 1; white-space: pre;">January</text></g><g class="xtick"><text text-anchor="start" x="0" y="633" transform="translate(372.09,0) rotate(30,0,627)" style="font-family: 'Open Sans', verdana, arial, sans-serif; font-size: 12px; fill: rgb(68, 68, 68); fill-opacity: 1; white-space: pre;">February</text></g><g class="xtick"><text text-anchor="start" x="0" y="633" transform="translate(405.53,0) rotate(30,0,627)" style="font-family: 'Open Sans', verdana, arial, sans-serif; font-size: 12px; fill: rgb(68, 68, 68); fill-opacity: 1; white-space: pre;">March</text></g><g class="xtick"><text text-anchor="start" x="0" y="633" transform="translate(438.96,0) rotate(30,0,627)" style="font-family: 'Open Sans', verdana, arial, sans-serif; font-size: 12px; fill: rgb(68, 68, 68); fill-opacity: 1; white-space: pre;">April</text></g><g class="xtick"><text text-anchor="start" x="0" y="633" transform="translate(472.4,0) rotate(30,0,627)" style="font-family: 'Open Sans', verdana, arial, sans-serif; font-size: 12px; fill: rgb(68, 68, 68); fill-opacity: 1; white-space: pre;">May</text></g></g><g class="yaxislayer-above"><g class="ytick"><text text-anchor="end" x="79" y="4.199999999999999" transform="translate(0,613.64)" style="font-family: 'Open Sans', verdana, arial, sans-serif; font-size: 12px; fill: rgb(68, 68, 68); fill-opacity: 1; white-space: pre;">140</text></g><g class="ytick"><text text-anchor="end" x="79" y="4.199999999999999" transform="translate(0,547.76)" style="font-family: 'Open Sans', verdana, arial, sans-serif; font-size: 12px; fill: rgb(68, 68, 68); fill-opacity: 1; white-space: pre;">150</text></g><g class="ytick"><text text-anchor="end" x="79" y="4.199999999999999" transform="translate(0,481.89)" style="font-family: 'Open Sans', verdana, arial, sans-serif; font-size: 12px; fill: rgb(68, 68, 68); fill-opacity: 1; white-space: pre;">160</text></g><g class="ytick"><text text-anchor="end" x="79" y="4.199999999999999" transform="translate(0,416.01)" style="font-family: 'Open Sans', verdana, arial, sans-serif; font-size: 12px; fill: rgb(68, 68, 68); fill-opacity: 1; white-space: pre;">170</text></g></g><g class="overaxes-above"/></g><g class="subplot x2y2"><g class="layer-subplot"><g class="shapelayer"/><g class="imagelayer"/></g><g class="gridlayer"><g class="x2"><path class="x2grid crisp" transform="translate(113.13,0)" d="M0,100v233.99999999999997" style="stroke: rgb(238, 238, 238); stroke-opacity: 1; stroke-width: 1px;"/><path class="x2grid crisp" transform="translate(183.95999999999998,0)" d="M0,100v233.99999999999997" style="stroke: rgb(238, 238, 238); stroke-opacity: 1; stroke-width: 1px;"/><path class="x2grid crisp" transform="translate(253.65,0)" d="M0,100v233.99999999999997" style="stroke: rgb(238, 238, 238); stroke-opacity: 1; stroke-width: 1px;"/><path class="x2grid crisp" transform="translate(323.35,0)" d="M0,100v233.99999999999997" style="stroke: rgb(238, 238, 238); stroke-opacity: 1; stroke-width: 1px;"/><path class="x2grid crisp" transform="translate(391.89,0)" d="M0,100v233.99999999999997" style="stroke: rgb(238, 238, 238); stroke-opacity: 1; stroke-width: 1px;"/><path class="x2grid crisp" transform="translate(461.58,0)" d="M0,100v233.99999999999997" style="stroke: rgb(238, 238, 238); stroke-opacity: 1; stroke-width: 1px;"/></g><g class="y2"><path class="y2grid crisp" transform="translate(0,308.72)" d="M80,0h417" style="stroke: rgb(238, 238, 238); stroke-opacity: 1; stroke-width: 1px;"/><path class="y2grid crisp" transform="translate(0,244.4)" d="M80,0h417" style="stroke: rgb(238, 238, 238); stroke-opacity: 1; stroke-width: 1px;"/><path class="y2grid crisp" transform="translate(0,180.09)" d="M80,0h417" style="stroke: rgb(238, 238, 238); stroke-opacity: 1; stroke-width: 1px;"/><path class="y2grid crisp" transform="translate(0,115.77)" d="M80,0h417" style="stroke: rgb(238, 238, 238); stroke-opacity: 1; stroke-width: 1px;"/></g></g><g class="zerolinelayer"/><path class="xlines-below"/><path class="ylines-below"/><g class="overlines-below"/><g class="xaxislayer-below"/><g class="yaxislayer-below"/><g class="overaxes-below"/><g class="plot" transform="translate(80,100)" clip-path="url('#clip04cbfcx2y2plot')"><g class="scatterlayer mlayer"><g class="trace scatter traced2e1ca" style="stroke-miterlimit: 2; opacity: 1;"><g class="fills"/><g class="errorbars"/><g class="lines"><path class="js-line" d="M0,204.47L1.14,105.37L2.28,103.92L4.57,102.8L5.71,91.5L6.85,90.03L8,104.62L10.28,101.58L11.42,102.03L12.57,101.87L13.71,90.98L14.85,89.13L15.99,103.11L17.14,102.81L18.28,101.4L20.56,99.91L21.71,86.47L22.85,84.88L23.99,99.79L25.13,100.77L26.28,100.13L27.42,98.75L28.56,96.18L29.7,82.54L30.85,80.15L31.99,95.22L33.13,97.53L34.27,98.49L35.42,95.77L36.56,91.19L37.7,82.77L38.84,82.6L39.99,96.93L41.13,98.34L42.27,97.28L44.56,95.83L45.7,84.13L46.84,83.09L47.98,96.8L50.27,95.08L51.41,94.91L52.55,94.48L53.7,83.88L54.84,82.62L55.98,96.61L57.12,96.6L58.27,95.32L60.55,94.74L61.69,83.63L62.84,82.08L63.98,96.69L68.55,96.76L69.69,85.38L70.83,84.54L71.98,97.34L73.12,97.48L74.26,96.72L76.55,95.49L77.69,84.28L78.83,83.56L79.97,96.74L84.54,96.35L85.68,85.24L86.83,84.09L87.97,97.45L89.11,98.05L90.25,97.13L92.54,96.16L93.68,84.72L94.82,83.83L95.97,96.5L97.11,97.65L98.25,96.78L99.39,96.25L100.54,94.45L101.68,81.72L102.82,78.87L103.96,91.8L105.11,95.51L106.25,95.21L107.39,93.54L108.53,92.07L109.68,81.05L110.82,80.63L111.96,94.5L113.1,93.85L114.25,92.17L115.39,91.26L116.53,91.31L117.67,80.81L118.82,79.53L119.96,93.66L121.1,92.45L123.39,90.17L124.53,90.01L125.67,78.57L126.81,77.35L127.96,91.36L129.1,88.41L131.38,87.41L132.53,88.47L134.81,76.58L135.95,90.54L137.1,90.98L138.24,90.25L140.52,86.55L141.67,73.58L142.81,71.8L143.95,86.94L145.09,86.95L146.24,85.25L148.52,82.85L149.66,69.92L150.81,68.53L151.95,82.71L153.09,83.41L154.23,81.28L156.52,79.71L157.66,68.04L158.8,66.39L159.95,81.14L163.37,77.29L164.52,76.97L165.66,65.48L166.8,64.24L167.94,78.83L169.08,79.1L171.37,77.79L172.51,76.45L173.65,64.19L174.8,62.66L175.94,79.19L177.08,81.9L179.37,83.22L180.51,82.59L182.79,61.94L183.94,77.74L185.08,78.43L186.22,77.59L188.51,76.93L189.65,63.68L190.79,63.07L191.93,78.84L193.08,78.66L194.22,77.2L196.5,76.1L197.65,63.88L198.79,63.21L199.93,78.17L201.07,79.1L202.22,77.59L204.5,72.68L205.64,58.06L206.79,58.15L207.93,74.01L210.21,70.91L211.36,70.5L212.5,70.88L213.64,57.02L214.78,56.51L215.93,74.1L219.35,71.88L220.5,72.35L221.64,58.49L222.78,57.83L223.92,75.23L225.07,75.61L228.49,74.24L229.64,57.03L230.78,53.67L231.92,65.26L233.06,63.71L234.21,60.11L236.49,58.58L237.63,43.67L238.78,40.71L239.92,51.72L241.06,48.1L242.2,33.53L244.49,72.05L245.63,63.14L246.77,65.09L247.92,80.19L249.06,81.81L250.2,81.91L252.48,81.92L253.63,67.79L254.77,67.27L255.91,82.36L258.2,82.58L259.34,82.68L260.48,82.77L261.62,68.45L262.77,68.19L263.91,83.19L266.19,83.2L267.34,83.05L268.48,83.12L269.62,69.02L270.76,68.7L271.91,83.83L276.48,82.95L277.62,68.94L278.76,53.93L279.9,68.27L283.33,67.94L284.47,67.8L285.62,53.64L286.76,53.31L287.9,68.04L289.04,67.91L292.47,67.52L293.61,53.11L294.76,52.48L295.9,67.29L298.18,67.38L299.33,67.32L300.47,67.36L301.61,53.25L302.75,52.84L303.9,67.44L308.47,67.23L309.61,52.82L310.75,52.16L311.89,62.51L314.18,62.73L315.32,62.79L316.46,62.78L317.61,47.69L318.75,47.62L319.89,62.19L324.46,61.48L325.6,47.49L326.75,47.06L327.89,61.71L331.32,61.33L332.46,61.86L333.6,47.74L334.74,46.67L335.88,60.14L337.03,59.76L340.45,59.29L341.6,45.18L342.74,44.65L343.88,59.77L346.17,59.13L347.31,57.18L348.45,56.37L349.59,42.82L350.74,42.41L351.88,56.56L356.45,56.52L357.59,42.2L358.73,42.04L359.88,57.33L362.16,56.47L363.3,53.11L364.45,53.19L365.59,38.99L366.73,38.76L367.87,53.8L372.44,52.22L373.59,38.76L374.73,38.32L375.87,53.01L377.01,53.32L378.16,52.74L380.44,52.56L381.58,34.27L382.73,30.63L383.87,44.95L388.44,44.92L389.58,31.68L390.72,30.98L391.87,45.41L396.44,45.66L397.58,31.48L398.72,31.17L399.86,45.32L401.01,45.73L402.15,44.45L403.29,45.4L404.43,42.02L405.58,29.13L406.72,30.69L407.86,44.24L409,45.88L412.43,45.73L413.57,30.69L414.72,29.82L415.86,51.85L417,11.7" style="vector-effect: non-scaling-stroke; fill: none; stroke: rgb(0, 0, 255); stroke-opacity: 1; stroke-width: 2px; opacity: 1; stroke-dasharray: 3px, 3px;"/></g><g class="points"/><g class="text"/></g><g class="trace scatter trace90fc78" style="stroke-miterlimit: 2; opacity: 1;"><g class="fills"/><g class="errorbars"/><g class="lines"><path class="js-line" d="M0,222.3L1.14,147.1L2.28,145.91L3.43,144.94L4.57,145.05L5.71,135.27L6.85,134.11L8,146.36L9.14,145.52L10.28,144L11.42,143.82L12.57,144.1L13.71,135.03L14.85,133.96L15.99,144.84L17.14,144.65L18.28,143.12L20.56,142.1L21.71,131.59L22.85,130.09L23.99,142.6L25.13,143.07L26.28,142.57L28.56,139.76L29.7,128.23L30.85,126.39L31.99,138.73L34.27,142.52L35.42,140.46L36.56,137.37L37.7,130.35L38.84,130.13L39.99,140.77L41.13,141.99L42.27,141.24L44.56,140.18L45.7,131.42L46.84,130.52L47.98,141.03L51.41,139.52L52.55,139.64L53.7,130.78L54.84,129.66L55.98,140.46L57.12,140.67L59.41,139.11L60.55,139.29L61.69,130.66L62.84,129.29L63.98,140.48L65.12,140.79L67.41,140.05L68.55,139.95L69.69,131.23L70.83,130.48L71.98,140.26L73.12,140.43L75.4,139.55L76.55,139.36L77.69,130.63L78.83,130.21L79.97,140.2L81.12,140.71L83.4,140.15L84.54,139.84L85.68,131.62L86.83,130.83L87.97,140.84L89.11,141.53L91.4,140.23L92.54,139.9L93.68,131.15L94.82,130.01L95.97,139.75L97.11,140.94L100.54,138.96L101.68,128.68L102.82,126.79L103.96,137.58L105.11,140.4L106.25,140.03L108.53,138.33L109.68,129.9L110.82,129.51L111.96,139.82L115.39,136.94L116.53,137.24L117.67,129.9L118.82,128.88L119.96,139.02L121.1,137.86L123.39,136.24L124.53,136.28L125.67,128.21L126.81,127.12L127.96,136.41L129.1,134.94L131.38,134.48L132.53,135.03L134.81,125.84L135.95,135.72L138.24,135.34L139.38,133.83L140.52,132.67L141.67,123.51L142.81,121.83L143.95,132.3L145.09,131.94L146.24,130.52L148.52,128.49L149.66,119.22L150.81,117.8L151.95,128.38L153.09,128.6L154.23,126.75L156.52,125.96L157.66,117.68L158.8,116.26L159.95,126.78L163.37,123.41L164.52,123.5L165.66,115.38L166.8,114.45L167.94,125.52L169.08,125.44L171.37,124.78L172.51,124.18L173.65,114.72L174.8,114.87L175.94,126.75L177.08,128.68L180.51,129.3L181.65,119.75L182.79,111.69L183.94,124.06L186.22,123.51L187.36,123.21L188.51,123.65L189.65,112.86L190.79,112.45L191.93,124.45L196.5,123.18L197.65,113.38L198.79,113.04L199.93,124.65L202.22,124.14L203.36,121.98L204.5,120.55L205.64,109.25L206.79,109.29L207.93,120.98L210.21,118.2L211.36,118.05L212.5,118.81L213.64,108.06L214.78,107.9L215.93,121.31L218.21,119.66L219.35,119.67L220.5,119.89L221.64,108.92L222.78,108.57L223.92,121.45L226.21,121.56L227.35,121.28L228.49,121.05L229.64,107.96L230.78,105.38L231.92,116.1L235.35,111.39L236.49,110.92L237.63,99.53L238.78,96.91L239.92,105.52L241.06,103.36L242.2,99.35L243.35,112.27L244.49,118.99L245.63,111.55L246.77,113.16L247.92,126.79L250.2,128.02L251.34,128.14L252.48,128.11L253.63,116.64L254.77,116.27L255.91,128.34L259.34,128.66L260.48,128.7L261.62,117.39L262.77,117.16L263.91,128.86L265.05,129.2L268.48,128.98L269.62,117.79L270.76,117.6L271.91,129.48L276.48,129.15L277.62,117.99L278.76,118.76L279.9,130L284.47,129.92L285.62,118.79L286.76,118.53L287.9,130.03L292.47,129.88L293.61,118.55L294.76,118.02L295.9,129.56L299.33,129.68L300.47,129.72L301.61,118.64L302.75,118.24L303.9,129.6L305.04,129.51L308.47,129.54L309.61,118.04L310.75,117.37L311.89,125.39L314.18,125.65L315.32,125.8L316.46,125.8L317.61,113.54L318.75,113.44L319.89,125.21L324.46,124.78L325.6,113.58L326.75,113.24L327.89,124.89L331.32,124.64L332.46,125.11L333.6,113.94L334.74,113.64L335.88,123.9L337.03,123.58L340.45,123.28L341.6,112.05L342.74,111.62L343.88,123.59L347.31,122.56L348.45,121.83L349.59,111.29L350.74,110.92L351.88,122.18L353.02,122.11L356.45,122.18L357.59,110.74L358.73,110.62L359.88,122.76L362.16,121.98L363.3,120.77L364.45,120.89L365.59,109.57L366.73,109.39L367.87,121.37L372.44,120.28L373.59,109.55L374.73,109.14L375.87,120.65L378.16,120.37L379.3,120.31L380.44,120.34L381.58,109.09L382.73,108.86L383.87,120.23L388.44,120.16L389.58,109.6L390.72,109.33L391.87,120.56L394.15,120.32L395.29,120.27L396.44,120.39L397.58,109.23L398.72,108.99L399.86,120.35L401.01,120.42L402.15,119.57L403.29,120.2L404.43,119.07L405.58,108.4L406.72,108.93L407.86,120.38L409,120.7L412.43,120.51L413.57,109.37L414.72,109.03L415.86,121.34L417,94.89" style="vector-effect: non-scaling-stroke; fill: none; stroke: rgb(0, 0, 255); stroke-opacity: 1; stroke-width: 2px; opacity: 1;"/></g><g class="points"/><g class="text"/></g></g></g><g class="overplot"/><path class="xlines-above crisp" d="M0,0" style="fill: none;"/><path class="ylines-above crisp" d="M0,0" style="fill: none;"/><g class="overlines-above"/><g class="xaxislayer-above"><g class="x2tick"><text text-anchor="middle" x="0" y="347" transform="translate(113.13,0)" style="font-family: 'Open Sans', verdana, arial, sans-serif; font-size: 12px; fill: rgb(68, 68, 68); fill-opacity: 1; white-space: pre;">Jul 2019</text></g><g class="x2tick"><text text-anchor="middle" x="0" y="347" transform="translate(183.95999999999998,0)" style="font-family: 'Open Sans', verdana, arial, sans-serif; font-size: 12px; fill: rgb(68, 68, 68); fill-opacity: 1; white-space: pre;">Sep 2019</text></g><g class="x2tick"><text text-anchor="middle" x="0" y="347" transform="translate(253.65,0)" style="font-family: 'Open Sans', verdana, arial, sans-serif; font-size: 12px; fill: rgb(68, 68, 68); fill-opacity: 1; white-space: pre;">Nov 2019</text></g><g class="x2tick"><text text-anchor="middle" x="0" y="347" transform="translate(323.35,0)" style="font-family: 'Open Sans', verdana, arial, sans-serif; font-size: 12px; fill: rgb(68, 68, 68); fill-opacity: 1; white-space: pre;">Jan 2020</text></g><g class="x2tick"><text text-anchor="middle" x="0" y="347" transform="translate(391.89,0)" style="font-family: 'Open Sans', verdana, arial, sans-serif; font-size: 12px; fill: rgb(68, 68, 68); fill-opacity: 1; white-space: pre;">Mar 2020</text></g><g class="x2tick"><text text-anchor="middle" x="0" y="347" transform="translate(461.58,0)" style="font-family: 'Open Sans', verdana, arial, sans-serif; font-size: 12px; fill: rgb(68, 68, 68); fill-opacity: 1; white-space: pre;">May 2020</text></g></g><g class="yaxislayer-above"><g class="y2tick"><text text-anchor="end" x="79" y="4.199999999999999" transform="translate(0,308.72)" style="font-family: 'Open Sans', verdana, arial, sans-serif; font-size: 12px; fill: rgb(68, 68, 68); fill-opacity: 1; white-space: pre;">120</text></g><g class="y2tick"><text text-anchor="end" x="79" y="4.199999999999999" transform="translate(0,244.4)" style="font-family: 'Open Sans', verdana, arial, sans-serif; font-size: 12px; fill: rgb(68, 68, 68); fill-opacity: 1; white-space: pre;">140</text></g><g class="y2tick"><text text-anchor="end" x="79" y="4.199999999999999" transform="translate(0,180.09)" style="font-family: 'Open Sans', verdana, arial, sans-serif; font-size: 12px; fill: rgb(68, 68, 68); fill-opacity: 1; white-space: pre;">160</text></g><g class="y2tick"><text text-anchor="end" x="79" y="4.199999999999999" transform="translate(0,115.77)" style="font-family: 'Open Sans', verdana, arial, sans-serif; font-size: 12px; fill: rgb(68, 68, 68); fill-opacity: 1; white-space: pre;">180</text></g></g><g class="overaxes-above"/></g></g><g class="polarlayer"/><g class="ternarylayer"/><g class="geolayer"/><g class="funnelarealayer"/><g class="pielayer"/><g class="treemaplayer"/><g class="sunburstlayer"/><g class="glimages"/><defs id="topdefs-04cbfc"><g class="clips"/><clipPath id="legend04cbfc"><rect width="183" height="112" x="0" y="0"/></clipPath></defs><g class="layer-above"><g class="imagelayer"/><g class="shapelayer"/></g><g class="infolayer"><g class="legend" pointer-events="all" transform="translate(505.34000000000003,100)"><rect class="bg" shape-rendering="crispEdges" style="stroke: rgb(68, 68, 68); stroke-opacity: 1; fill: rgb(255, 255, 255); fill-opacity: 1; stroke-width: 0px;" width="183" height="112" x="0" y="0"/><g class="scrollbox" transform="" clip-path="url('#legend04cbfc')"><text class="legendtitletext" text-anchor="start" x="2" y="15.600000000000001" style="font-family: 'Open Sans', verdana, arial, sans-serif; font-size: 12px; fill: rgb(68, 68, 68); fill-opacity: 1; white-space: pre;">Avg Price ($)</text><g class="groups" transform=""><g class="traces" transform="translate(0,30.1)" style="opacity: 1;"><text class="legendtext" text-anchor="start" x="40" y="4.680000000000001" style="font-family: 'Open Sans', verdana, arial, sans-serif; font-size: 12px; fill: rgb(68, 68, 68); fill-opacity: 1; white-space: pre;">Daily (with outliers)</text><g class="layers" style="opacity: 1;"><g class="legendfill"/><g class="legendlines"><path class="js-line" d="M5,0h30" style="fill: none; stroke: rgb(0, 0, 255); stroke-opacity: 1; stroke-dasharray: 3px, 3px; stroke-width: 2px;"/></g><g class="legendsymbols"><g class="legendpoints"/></g></g><rect class="legendtoggle" x="0" y="-9.5" width="177.203125" height="19" style="fill: rgb(0, 0, 0); fill-opacity: 0;"/></g><g class="traces" transform="translate(0,49.1)" style="opacity: 1;"><text class="legendtext" text-anchor="start" x="40" y="4.680000000000001" style="font-family: 'Open Sans', verdana, arial, sans-serif; font-size: 12px; fill: rgb(68, 68, 68); fill-opacity: 1; white-space: pre;">Daily (no outliers)</text><g class="layers" style="opacity: 1;"><g class="legendfill"/><g class="legendlines"><path class="js-line" d="M5,0h30" style="fill: none; stroke: rgb(0, 0, 255); stroke-opacity: 1; stroke-width: 2px;"/></g><g class="legendsymbols"><g class="legendpoints"/></g></g><rect class="legendtoggle" x="0" y="-9.5" width="177.203125" height="19" style="fill: rgb(0, 0, 0); fill-opacity: 0;"/></g></g><g class="groups" transform="translate(0,10)"><g class="traces" transform="translate(0,68.1)" style="opacity: 1;"><text class="legendtext" text-anchor="start" x="40" y="4.680000000000001" style="font-family: 'Open Sans', verdana, arial, sans-serif; font-size: 12px; fill: rgb(68, 68, 68); fill-opacity: 1; white-space: pre;">Monthly (with outliers)</text><g class="layers" style="opacity: 1;"><g class="legendfill"/><g class="legendlines"><path class="js-line" d="M5,0h30" style="fill: none; stroke: rgb(255, 165, 0); stroke-opacity: 1; stroke-dasharray: 3px, 3px; stroke-width: 2px;"/></g><g class="legendsymbols"><g class="legendpoints"><path class="scatterpts" transform="translate(20,0)" d="M3,0A3,3 0 1,1 0,-3A3,3 0 0,1 3,0Z" style="opacity: 1; stroke-width: 0px; fill: rgb(255, 165, 0); fill-opacity: 1;"/></g></g></g><rect class="legendtoggle" x="0" y="-9.5" width="177.203125" height="19" style="fill: rgb(0, 0, 0); fill-opacity: 0;"/></g><g class="traces" transform="translate(0,87.1)" style="opacity: 1;"><text class="legendtext" text-anchor="start" x="40" y="4.680000000000001" style="font-family: 'Open Sans', verdana, arial, sans-serif; font-size: 12px; fill: rgb(68, 68, 68); fill-opacity: 1; white-space: pre;">Monthly (no outliers)</text><g class="layers" style="opacity: 1;"><g class="legendfill"/><g class="legendlines"><path class="js-line" d="M5,0h30" style="fill: none; stroke: rgb(255, 165, 0); stroke-opacity: 1; stroke-width: 2px;"/></g><g class="legendsymbols"><g class="legendpoints"><path class="scatterpts" transform="translate(20,0)" d="M3,0A3,3 0 1,1 0,-3A3,3 0 0,1 3,0Z" style="opacity: 1; stroke-width: 0px; fill: rgb(255, 165, 0); fill-opacity: 1;"/></g></g></g><rect class="legendtoggle" x="0" y="-9.5" width="177.203125" height="19" style="fill: rgb(0, 0, 0); fill-opacity: 0;"/></g></g></g><rect class="scrollbar" rx="20" ry="3" width="0" height="0" style="fill: rgb(128, 139, 164); fill-opacity: 1;" x="0" y="0"/></g><g class="g-gtitle"><text class="gtitle" x="350" y="50" text-anchor="middle" dy="0em" style="font-family: 'Open Sans', verdana, arial, sans-serif; font-size: 17px; fill: rgb(68, 68, 68); opacity: 1; font-weight: normal; white-space: pre;">Average Price of Airbnb Listings in NYC Over Time</text></g><g class="g-xtitle"/><g class="g-x2title"/><g class="g-ytitle"><text class="ytitle" transform="rotate(-90,42,503)" x="42" y="503" text-anchor="middle" style="font-family: 'Open Sans', verdana, arial, sans-serif; font-size: 14px; fill: rgb(68, 68, 68); opacity: 1; font-weight: normal; white-space: pre;">Price ($)</text></g><g class="g-y2title"><text class="y2title" transform="rotate(-90,42,217)" x="42" y="217" text-anchor="middle" style="font-family: 'Open Sans', verdana, arial, sans-serif; font-size: 14px; fill: rgb(68, 68, 68); opacity: 1; font-weight: normal; white-space: pre;">Price ($)</text></g></g></svg>