<svg class="main-svg" xmlns="http://www.w3.org/2000/svg" xmlns:xlink="http://www.w3.org/1999/xlink" width="700" height="500" style="" viewBox="0 0 700 500"><rect x="0" y="0" width="700" height="500" style="fill: rgb(255, 255, 255); fill-opacity: 1;"/><defs id="defs-26575b"><g class="clips"><clipPath id="clip26575bxyplot" class="plotclip"><rect width="473" height="320"/></clipPath><clipPath class="axesclip" id="clip26575bx"><rect x="80" y="0" width="473" height="500"/></clipPath><clipPath class="axesclip" id="clip26575by"><rect x="0" y="100" width="700" height="320"/></clipPath><clipPath class="axesclip" id="clip26575bxy"><rect x="80" y="100" width="473" height="320"/></clipPath></g><g class="gradients"/></defs><g class="bglayer"/><g class="layer-below"><g class="imagelayer"/><g class="shapelayer"/></g><g class="cartesianlayer"><g class="subplot xy"><g class="layer-subplot"><g class="shapelayer"/><g class="imagelayer"/></g><g class="gridlayer"><g class="x"><path class="xgrid crisp" transform="translate(117.58,0)" d="M0,100v320" style="stroke: rgb(238, 238, 238); stroke-opacity: 1; stroke-width: 1px;"/><path class="xgrid crisp" transform="translate(197.93,0)" d="M0,100v320" style="stroke: rgb(238, 238, 238); stroke-opacity: 1; stroke-width: 1px;"/><path class="xgrid crisp" transform="translate(276.98,0)" d="M0,100v320" style="stroke: rgb(238, 238, 238); stroke-opacity: 1; stroke-width: 1px;"/><path class="xgrid crisp" transform="translate(356.02,0)" d="M0,100v320" style="stroke: rgb(238, 238, 238); stroke-opacity: 1; stroke-width: 1px;"/><path class="xgrid crisp" transform="translate(433.78,0)" d="M0,100v320" style="stroke: rgb(238, 238, 238); stroke-opacity: 1; stroke-width: 1px;"/><path class="xgrid crisp" transform="translate(512.8299999999999,0)" d="M0,100v320" style="stroke: rgb(238, 238, 238); stroke-opacity: 1; stroke-width: 1px;"/></g><g class="y"><path class="ygrid crisp" transform="translate(0,399.01)" d="M80,0h473" style="stroke: rgb(238, 238, 238); stroke-opacity: 1; stroke-width: 1px;"/><path class="ygrid crisp" transform="translate(0,350.87)" d="M80,0h473" style="stroke: rgb(238, 238, 238); stroke-opacity: 1; stroke-width: 1px;"/><path class="ygrid crisp" transform="translate(0,302.74)" d="M80,0h473" style="stroke: rgb(238, 238, 238); stroke-opacity: 1; stroke-width: 1px;"/><path class="ygrid crisp" transform="translate(0,254.6)" d="M80,0h473" style="stroke: rgb(238, 238, 238); stroke-opacity: 1; stroke-width: 1px;"/><path class="ygrid crisp" transform="translate(0,206.47)" d="M80,0h473" style="stroke: rgb(238, 238, 238); stroke-opacity: 1; stroke-width: 1px;"/><path class="ygrid crisp" transform="translate(0,158.34)" d="M80,0h473" style="stroke: rgb(238, 238, 238); stroke-opacity: 1; stroke-width: 1px;"/><path class="ygrid crisp" transform="translate(0,110.2)" d="M80,0h473" style="stroke: rgb(238, 238, 238); stroke-opacity: 1; stroke-width: 1px;"/></g></g><g class="zerolinelayer"/><path class="xlines-below"/><path class="ylines-below"/><g class="overlines-below"/><g class="xaxislayer-below"/><g class="yaxislayer-below"/><g class="overaxes-below"/><g class="plot" transform="translate(80,100)" clip-path="url('#clip26575bxyplot')"><g class="scatterlayer mlayer"><g class="trace scatter traced83572" style="stroke-miterlimit: 2; opacity: 1;"><g class="fills"/><g class="errorbars"/><g class="lines"><path class="js-line" d="M0,147.7L1.3,64.85L2.59,62.88L3.89,61.85L5.18,63.33L6.48,55.86L7.78,54.67L9.07,66.81L10.37,64.34L11.66,61.72L12.96,61.35L14.25,62.56L15.55,56.05L16.85,55.08L18.14,65.06L20.73,60.82L22.03,60.77L23.33,60.61L24.62,52.49L25.92,50.7L27.21,62.15L31.1,59.03L32.4,57.65L33.69,47.36L34.99,45.62L36.28,57.67L37.58,61.93L38.88,62.75L40.17,61.12L41.47,58.94L42.76,52.52L44.06,51.83L45.36,61.37L46.65,61.18L47.95,59.44L50.54,58.52L51.84,51.66L53.13,50.73L54.43,60.74L57.02,57.63L58.32,57.5L59.61,58.27L60.91,51.2L62.2,49.77L63.5,60.13L64.79,59.31L66.09,57.57L67.39,56.86L68.68,57.77L69.98,51.07L71.27,49.38L72.57,60.19L73.87,59.5L75.16,58.33L76.46,58.27L77.75,58.73L79.05,52.05L80.35,51.2L81.64,59.96L85.53,57.88L86.82,58.35L88.12,51.48L89.42,51.13L90.71,60.11L92.01,59.9L93.3,58.48L94.6,58.74L95.9,59.03L97.19,52.54L98.49,51.63L99.78,60.82L101.08,60.91L102.38,59.33L104.97,59.09L106.26,52.36L107.56,50.98L108.85,60.12L110.15,60.62L111.45,59.56L114.04,58.56L115.33,49.77L116.63,47.62L117.93,57.33L119.22,59.75L120.52,58.11L121.81,56.14L123.11,55.87L124.41,49.48L125.7,49.15L127,58.79L128.29,56.53L130.88,53.61L132.18,54.14L133.48,48.9L134.77,47.81L136.07,57.34L137.36,54.87L138.66,52.82L139.96,52.55L141.25,53.04L142.55,46.49L143.84,45.45L145.14,53.45L146.44,50.88L147.73,50.4L150.32,51.02L151.62,47.99L152.92,45.17L154.21,54.39L156.8,52.73L158.1,50.92L159.39,49.65L160.69,42.54L161.99,40.76L163.28,50.91L164.58,50.16L165.87,48.28L168.47,46.78L169.76,39.3L171.06,37.61L172.35,47.56L173.65,47.39L174.95,44.41L176.24,43.74L177.54,44.21L178.83,38.29L180.13,36.68L181.42,46.49L182.72,44.06L184.02,41.94L185.31,41.37L186.61,42.02L187.9,35.88L189.2,34.73L190.5,45.5L195.68,42.84L196.98,35.27L198.27,35.44L199.57,46.61L200.86,48.37L202.16,48.27L204.75,48.71L206.05,41L207.34,35.21L208.64,46.77L212.53,45.01L213.82,45.73L215.12,37.31L216.41,36.69L217.71,47.71L219.01,46.8L221.6,45.43L222.89,45.69L224.19,38.96L225.48,38.46L226.78,48.86L228.08,48.83L229.37,47.79L230.67,44.82L231.96,43.16L233.26,33.76L234.56,33.97L235.85,43.89L238.44,39.57L239.74,39.39L241.04,40.77L242.33,32.56L243.63,32.22L244.92,44.77L247.52,42.17L248.81,42.29L250.11,42.73L251.4,34.27L252.7,33.62L253.99,45.81L255.29,46.17L256.59,45.74L259.18,45.31L260.47,33.87L261.77,30.89L263.07,40.37L265.66,35L266.95,34.45L268.25,33.36L269.55,23.9L270.84,20.85L272.14,27.2L274.73,18.76L276.02,36.89L277.32,44.15L278.62,38.95L279.91,41.45L281.21,53.61L282.5,54.71L283.8,54.59L286.39,54.83L287.69,45.55L288.98,44.78L290.28,55.1L295.46,55.55L296.76,46.4L298.05,46L299.35,55.94L303.24,55.85L304.53,55.88L305.83,46.89L307.13,46.5L308.42,56.65L309.72,56.33L312.31,55.94L313.61,56.13L314.9,47.26L316.2,47.66L317.49,56.9L318.79,56.86L321.38,56.5L322.68,56.7L323.97,47.83L325.27,47.35L326.56,56.89L327.86,56.69L331.75,56.76L333.04,47.56L334.34,46.72L335.64,56.41L340.82,56.64L342.12,47.73L343.41,47.11L344.71,56.41L348.59,56.08L349.89,56.41L351.19,47.01L352.48,45.98L353.78,50.31L355.07,49.82L358.96,50.71L360.26,39.8L361.55,39.75L362.85,49.8L365.44,48.5L366.74,48.68L368.03,49.15L369.33,40.28L370.62,39.72L371.92,49.55L374.51,48.62L375.81,48.95L377.1,49.96L378.4,41.08L379.7,40.68L380.99,47.99L383.58,46.88L384.88,46.77L386.18,47.1L387.47,38.08L388.77,37.45L390.06,47.64L395.25,45.53L396.54,37.16L397.84,36.64L399.13,46.12L403.02,45.26L404.32,45.71L405.61,36.47L406.91,36.25L408.21,46.79L409.5,46.1L410.8,45.37L412.09,43.27L413.39,43.63L414.68,34.5L415.98,34.22L417.28,44.54L421.16,43.21L422.46,43.05L423.76,34.49L425.05,33.91L426.35,43.82L427.64,43.72L430.24,42.76L431.53,43.06L432.83,34.24L434.12,33.87L435.42,43.57L436.72,43.18L439.31,42.63L440.6,43.02L441.9,34.64L443.19,34.26L444.49,43.78L445.79,42.82L449.67,43.09L450.97,34.21L452.27,33.78L453.56,43.6L456.15,42.08L457.45,42.64L458.75,42.44L460.04,33.89L461.34,33.56L462.63,43.26L463.93,43.9L465.22,43.45L467.82,43.3L469.11,34.3L470.41,33.96L471.7,45.26L473,16" style="vector-effect: non-scaling-stroke; fill: none; stroke: rgb(31, 119, 180); stroke-opacity: 1; stroke-width: 2px; opacity: 1;"/></g><g class="points"/><g class="text"/></g><g class="trace scatter traceefffad" style="stroke-miterlimit: 2; opacity: 1;"><g class="fills"/><g class="errorbars"/><g class="lines"><path class="js-line" d="M0,260.85L1.3,215.73L2.59,215.67L5.18,214.2L6.48,207.22L7.78,206.64L9.07,213.12L11.66,213.83L12.96,213.91L14.25,213.39L15.55,206.72L16.85,205.96L18.14,212.41L19.44,213.69L20.73,213.52L23.33,212.25L24.62,204.92L25.92,204.35L27.21,211.79L28.51,213.11L29.81,213.15L32.4,211.4L33.69,204.28L34.99,203.27L36.28,209.93L38.88,211.51L40.17,209.95L41.47,207.56L42.76,203.35L44.06,203.49L45.36,210.04L46.65,211.88L47.95,212.29L50.54,211.59L51.84,205.59L53.13,205.13L54.43,210.89L57.02,211.52L58.32,211.36L59.61,210.93L60.91,205.1L62.2,204.79L63.5,210.59L64.79,211.59L66.09,211.54L68.68,210.91L69.98,204.98L71.27,204.46L72.57,210.46L75.16,211.66L76.46,211.4L77.75,210.82L79.05,204.85L80.35,204.52L81.64,210.32L84.23,211.03L85.53,210.99L86.82,210.27L88.12,204.4L89.42,204.16L90.71,210.15L93.3,211.2L94.6,211.14L95.9,210.45L97.19,204.99L98.49,204.58L99.78,210.46L102.38,211.35L103.67,211.09L104.97,210.5L106.26,204.41L107.56,204.01L108.85,209.58L110.15,211.04L111.45,211.12L114.04,210.04L115.33,203.53L116.63,202.87L117.93,209.44L120.52,211.62L121.81,211.87L123.11,211.07L124.41,204.89L125.7,204.66L127,210.62L130.88,210.54L132.18,210.52L133.48,205.12L134.77,204.61L136.07,210.41L137.36,210.74L139.96,210.35L141.25,210L142.55,204.69L143.84,204.05L145.14,209.98L146.44,209.86L150.32,209.96L151.62,204.49L152.92,202.15L154.21,207.7L156.8,208.48L158.1,207.76L159.39,207.22L160.69,200.66L161.99,199.8L163.28,205.82L165.87,205.54L167.17,204.99L168.47,204.04L169.76,197.69L171.06,197.19L172.35,203.36L174.95,203.57L176.24,203.31L177.54,202.62L178.83,196.32L180.13,195.76L181.42,201.92L184.02,201.54L185.31,201.22L186.61,200.85L187.9,194.97L189.2,194.74L190.5,200.79L194.38,201.35L195.68,200.99L196.98,194.57L198.27,194.66L199.57,201.59L200.86,202.79L203.45,203.67L204.75,203.34L207.34,190.68L208.64,197.84L211.23,198.35L212.53,198.13L213.82,198.17L215.12,190.64L216.41,190.57L217.71,197.65L220.3,197.96L221.6,197.78L222.89,197.57L224.19,190.05L225.48,189.97L226.78,197.06L229.37,197.24L230.67,196.64L231.96,196.01L233.26,188.38L234.56,188.28L235.85,195.94L241.04,195.32L242.33,187.72L243.63,187.76L244.92,195.67L250.11,195.31L251.4,187.51L252.7,187.56L253.99,195.06L257.88,195.21L259.18,194.9L260.47,186.53L261.77,185.27L263.07,191.92L264.36,191.53L266.95,190.15L268.25,190.31L269.55,182.57L270.84,181.19L272.14,187.53L273.43,187.58L274.73,185.82L276.02,189.18L277.32,192.83L278.62,187.53L279.91,187.71L281.21,196.27L283.8,197.13L285.1,197.12L286.39,197.03L287.69,189.16L288.98,189.32L290.28,197.15L294.17,197.37L295.46,197.31L296.76,189.6L298.05,189.58L299.35,197.16L300.65,197.49L304.53,197.42L305.83,189.73L307.13,189.81L308.42,197.51L313.61,197.45L314.9,189.71L316.2,189.94L317.49,197.47L321.38,197.69L322.68,197.51L323.97,189.81L325.27,189.85L326.56,197.53L327.86,197.61L331.75,197.41L333.04,189.7L334.34,189.64L335.64,197.22L339.52,197.42L340.82,197.21L342.12,189.65L343.41,189.61L344.71,197.26L346,197.33L349.89,197.16L351.19,189.37L352.48,189.28L353.78,196.28L357.67,196.83L358.96,196.5L360.26,188.99L361.55,188.88L362.85,196.43L364.15,196.78L368.03,196.33L369.33,188.58L370.62,188.57L371.92,196.15L375.81,196.35L377.1,196.15L378.4,188.44L379.7,188.32L380.99,196.08L382.29,196.24L386.18,195.91L387.47,188.24L388.77,188.15L390.06,195.92L393.95,195.63L395.25,195.04L396.54,187.86L397.84,187.75L399.13,195.07L400.43,195.26L404.32,195.44L405.61,187.65L406.91,187.67L408.21,195.33L412.09,195.31L413.39,195.17L414.68,187.46L415.98,187.44L417.28,195.07L418.57,195.21L422.46,194.76L423.76,187.45L425.05,187.37L426.35,194.64L428.94,195L430.24,195.07L431.53,194.82L432.83,186.88L434.12,186.84L435.42,194.1L439.31,194.64L440.6,194.49L441.9,187.31L443.19,187.24L444.49,194.44L445.79,194.71L449.67,194.8L450.97,187.12L452.27,187.17L453.56,194.3L454.86,194.93L456.15,194.49L457.45,194.94L458.75,193.48L460.04,186.12L461.34,187.28L462.63,194.77L463.93,194.61L466.52,194.93L467.82,194.85L469.11,187.32L470.41,187.08L471.7,194.42L473,174.63" style="vector-effect: non-scaling-stroke; fill: none; stroke: rgb(255, 127, 14); stroke-opacity: 1; stroke-width: 2px; opacity: 1;"/></g><g class="points"/><g class="text"/></g><g class="trace scatter trace1e21b2" style="stroke-miterlimit: 2; opacity: 1;"><g class="fills"/><g class="errorbars"/><g class="lines"><path class="js-line" d="M0,294.04L1.3,268.55L2.59,268.45L5.18,266.8L6.48,258.52L7.78,257.72L9.07,265.85L11.66,267.18L12.96,267.09L14.25,266.34L15.55,258.08L16.85,257.6L18.14,265.2L19.44,266.26L20.73,266.23L23.33,265.31L24.62,255.95L25.92,255.28L27.21,264.31L28.51,265.76L29.81,265.72L32.4,264.45L33.69,256.25L34.99,254.71L36.28,263.13L38.88,262.4L40.17,260.9L41.47,258.11L42.76,253.23L44.06,253.88L45.36,261.84L46.65,263.61L47.95,263.93L50.54,263.17L51.84,255.74L53.13,255.08L54.43,262.72L55.72,263.69L57.02,263.66L59.61,263.08L60.91,255.28L62.2,254.78L63.5,262.67L66.09,263.5L67.39,263.36L68.68,262.77L69.98,255.34L71.27,254.89L72.57,262.59L73.87,263.69L75.16,263.52L77.75,263.29L79.05,255.56L80.35,255.19L81.64,262.79L84.23,263.67L85.53,263.67L86.82,263.18L88.12,255.5L89.42,255.04L90.71,262.46L93.3,263.75L94.6,263.7L95.9,263.14L97.19,255.79L98.49,255.54L99.78,262.74L102.38,263.72L103.67,263.64L104.97,263.14L106.26,255.52L107.56,254.93L108.85,261.45L111.45,262.02L112.74,261.33L114.04,260.81L115.33,252.57L116.63,251.02L117.93,258.55L119.22,262.09L120.52,263.08L121.81,263.25L123.11,262.59L124.41,256.02L125.7,255.6L127,262.83L128.29,264.18L132.18,264.31L133.48,257.39L134.77,256.89L136.07,263.88L137.36,264.62L138.66,264.48L141.25,263.99L142.55,257.08L143.84,256.46L145.14,263.5L147.73,263.89L149.03,263.82L150.32,263.88L151.62,257.16L152.92,256.27L154.21,263.68L156.8,264.7L158.1,264.21L159.39,263.45L160.69,256.2L161.99,255.41L163.28,261.79L165.87,261.43L167.17,260.89L168.47,259.86L169.76,252.46L171.06,251.8L172.35,258.82L174.95,259.45L176.24,259.24L177.54,258.6L178.83,251.56L180.13,250.8L181.42,257.92L184.02,258.17L185.31,258.05L186.61,257.56L187.9,250.97L189.2,250.35L190.5,257.61L194.38,258.5L195.68,258.26L196.98,250.78L198.27,250.71L199.57,258.47L200.86,259.6L203.45,260.37L204.75,260.22L207.34,246.48L208.64,254.87L212.53,255.1L213.82,255.05L215.12,246.12L216.41,246.14L217.71,254.55L219.01,254.77L222.89,254.36L224.19,245.33L225.48,245.26L226.78,253.66L229.37,253.83L230.67,253.49L231.96,252.82L233.26,244.44L234.56,244.26L235.85,252.87L241.04,252.93L242.33,243.84L243.63,243.88L244.92,252.74L250.11,252.59L251.4,243.78L252.7,243.79L253.99,252.08L259.18,252.05L260.47,242.76L261.77,241.97L263.07,249.75L264.36,249.5L265.66,248.38L268.25,248.73L269.55,240.29L270.84,240.01L272.14,247.39L273.43,246.98L274.73,245.11L277.32,250.87L278.62,243.29L279.91,243.49L281.21,252.46L283.8,253.46L285.1,253.54L286.39,253.51L287.69,244.79L288.98,244.78L290.28,253.55L295.46,253.59L296.76,244.89L298.05,244.97L299.35,253.69L304.53,253.76L305.83,245.06L307.13,245.05L308.42,253.74L313.61,253.77L314.9,245.05L316.2,245.08L317.49,253.72L322.68,253.75L323.97,245.04L325.27,245.02L326.56,253.7L331.75,253.55L333.04,244.86L334.34,244.82L335.64,253.56L340.82,253.69L342.12,245L343.41,244.97L344.71,253.68L349.89,253.61L351.19,244.85L352.48,244.81L353.78,252.98L358.96,253.25L360.26,244.46L361.55,244.44L362.85,253.17L368.03,253.16L369.33,244.35L370.62,244.28L371.92,253.08L377.1,252.96L378.4,244.24L379.7,244.2L380.99,252.94L386.18,252.88L387.47,244.15L388.77,244.12L390.06,252.82L395.25,252.32L396.54,243.79L397.84,243.77L399.13,252.25L404.32,252.44L405.61,243.68L406.91,243.62L408.21,252.44L413.39,252.36L414.68,243.58L415.98,243.56L417.28,252.36L422.46,252.13L423.76,243.54L425.05,243.45L426.35,252.07L430.24,252.35L431.53,252.28L432.83,243.27L434.12,243.26L435.42,251.77L436.72,251.98L440.6,251.99L441.9,243.43L443.19,243.27L444.49,251.87L449.67,252.17L450.97,243.37L452.27,243.35L453.56,251.82L457.45,252.14L458.75,251.07L460.04,242.68L461.34,243.25L462.63,251.77L463.93,251.93L467.82,252.06L469.11,243.3L470.41,243.15L471.7,252.09L473,246.18" style="vector-effect: non-scaling-stroke; fill: none; stroke: rgb(44, 160, 44); stroke-opacity: 1; stroke-width: 2px; opacity: 1;"/></g><g class="points"/><g class="text"/></g><g class="trace scatter trace646ba4" style="stroke-miterlimit: 2; opacity: 1;"><g class="fills"/><g class="errorbars"/><g class="lines"><path class="js-line" d="M0,304L1.3,258.11L2.59,258.12L5.18,258.47L6.48,248.39L7.78,247.74L9.07,255.12L10.37,256.22L11.66,255.91L14.25,255.72L15.55,247.06L16.85,247.84L18.14,256.15L19.44,257.64L20.73,256.87L23.33,256.1L24.62,247.7L25.92,246.97L27.21,254.99L28.51,256.44L29.81,256.52L32.4,255.52L33.69,247.31L34.99,246.4L36.28,254.17L37.58,255.22L38.88,254.66L40.17,254.24L41.47,252.34L42.76,249.24L44.06,249.35L46.65,254.42L47.95,254.87L50.54,255.03L51.84,245.14L53.13,245.1L54.43,253.61L55.72,254.78L57.02,254.36L59.61,253.88L60.91,244.86L62.2,244.79L63.5,253.43L68.68,253.46L69.98,244.47L71.27,245.08L72.57,254.04L75.16,255.67L76.46,255.18L77.75,254.46L79.05,245.14L80.35,245.34L81.64,254.38L84.23,255.36L85.53,255.21L86.82,254.53L88.12,245.22L89.42,244.45L90.71,253.23L93.3,254.08L94.6,254.13L95.9,253.94L97.19,244.81L98.49,244.99L99.78,254.09L102.38,254.93L103.67,254.95L104.97,254.11L106.26,245.12L107.56,244.91L108.85,253.79L110.15,255.21L111.45,255.26L112.74,255.22L114.04,253.98L115.33,249.88L116.63,249.77L117.93,254.67L119.22,253.61L121.81,254.7L123.11,254.49L124.41,247.2L125.7,247.12L127,253.76L128.29,255.22L132.18,255.2L133.48,247.3L134.77,247.47L136.07,255.19L137.36,256.55L138.66,256.8L141.25,256.53L142.55,248.7L143.84,248.15L145.14,256L147.73,256.8L149.03,256.67L150.32,256.53L151.62,247L152.92,246.87L154.21,253.65L156.8,255.03L158.1,260.28L159.39,260.67L160.69,252.5L161.99,251.59L163.28,258.13L165.87,257.9L167.17,257.22L168.47,256.23L169.76,248.13L171.06,246.98L172.35,254.31L174.95,255.32L176.24,254.95L177.54,254.81L178.83,245.93L180.13,244.65L181.42,252.23L182.72,253.44L184.02,253.45L186.61,253.22L187.9,245.09L189.2,244.21L190.5,252.42L193.09,253.79L194.38,252.87L195.68,252.32L196.98,242.19L198.27,239.62L199.57,249.5L200.86,254.13L202.16,254.65L203.45,255.01L204.75,254.37L207.34,236.66L208.64,247.4L211.23,247.96L212.53,247.96L213.82,247.96L215.12,236.37L216.41,236.36L217.71,246.96L220.3,247.52L221.6,247.47L222.89,247.46L224.19,235.96L225.48,235.83L226.78,245.79L229.37,246.26L230.67,246.15L231.96,245.04L233.26,237.24L234.56,237.12L235.85,244.8L237.15,246.38L238.44,246.38L241.04,246.05L242.33,234.62L243.63,234.75L244.92,244.96L248.81,246.16L250.11,245.89L251.4,234.15L252.7,234.29L253.99,244.5L255.29,244.84L256.59,244.84L257.88,244.08L259.18,244.08L260.47,236.1L261.77,235.85L263.07,242.03L264.36,242.18L265.66,240.88L266.95,242.34L268.25,242.33L269.55,233.31L270.84,232.29L272.14,240.67L273.43,240.48L274.73,240L276.02,240.75L277.32,242L278.62,235.34L279.91,235.34L281.21,245.32L283.8,245.91L285.1,245.91L286.39,245.9L287.69,234.9L288.98,234.9L290.28,245.56L294.17,245.91L295.46,245.94L296.76,234.94L298.05,234.95L299.35,246.28L300.65,246.62L304.53,246.62L305.83,236.03L307.13,236.04L308.42,246.28L312.31,246.63L313.61,246.62L314.9,235.52L316.2,235.66L317.49,246.33L318.79,246.66L322.68,246.67L323.97,235.66L325.27,235.66L326.56,246.33L330.45,246.67L331.75,246.67L333.04,235.66L334.34,235.66L335.64,246.33L336.93,246.62L340.82,246.62L342.12,235.62L343.41,235.61L344.71,246.2L348.59,246.58L349.89,246.58L351.19,235.53L352.48,235.57L353.78,248.06L355.07,248.42L358.96,248.44L360.26,236.22L361.55,236.21L362.85,248.06L366.74,248.43L368.03,248.43L369.33,236.22L370.62,236.21L371.92,248.05L373.22,247.07L377.1,247.08L378.4,233.84L379.7,233.84L380.99,246.7L384.88,247.08L386.18,247.08L387.47,233.84L388.77,233.84L390.06,246.7L391.36,247.03L395.25,247.04L396.54,233.84L397.84,233.84L399.13,246.7L403.02,247.07L404.32,247.07L405.61,233.83L406.91,233.84L408.21,247.03L409.5,247.07L413.39,247.08L414.68,233.84L415.98,233.84L417.28,247.02L422.46,247.07L423.76,233.84L425.05,233.84L426.35,247.03L431.53,247.04L432.83,233.8L434.12,233.8L435.42,246.99L440.6,247.02L441.9,233.8L443.19,233.8L444.49,246.65L448.38,247.02L449.67,247.02L450.97,233.8L452.27,232.78L453.56,245.63L454.86,245.96L458.75,245.97L460.04,237.43L461.34,237.43L462.63,247.59L463.93,245.96L465.22,245.97L467.82,245.97L469.11,232.71L470.41,232.71L471.7,245.56L473,241.35" style="vector-effect: non-scaling-stroke; fill: none; stroke: rgb(214, 39, 40); stroke-opacity: 1; stroke-width: 2px; opacity: 1;"/></g><g class="points"/><g class="text"/></g><g class="trace scatter traced6c6f2" style="stroke-miterlimit: 2; opacity: 1;"><g class="fills"/><g class="errorbars"/><g class="lines"><path class="js-line" d="M0,300.74L1.3,287.8L2.59,288.21L5.18,286.29L6.48,282.1L7.78,281.09L9.07,286.48L10.37,287.86L11.66,288L14.25,287.15L15.55,281.27L16.85,280.52L18.14,286.15L19.44,286.98L20.73,286.76L22.03,286.66L23.33,285.38L24.62,279.81L25.92,279.28L27.21,285.02L28.51,286.01L31.1,286.02L32.4,284.97L33.69,279.28L34.99,278.42L36.28,284.52L37.58,285.19L40.17,284.77L41.47,282.69L42.76,278.45L44.06,278.76L45.36,284.57L46.65,285.49L50.54,285.01L51.84,279.43L53.13,279.3L54.43,285.03L57.02,285.17L58.32,284.94L59.61,284.49L60.91,278.99L62.2,278.57L63.5,284.15L66.09,285L67.39,285.16L68.68,285.04L69.98,279.7L71.27,279.25L72.57,286.37L76.46,287.3L77.75,286.69L79.05,279.55L80.35,279.3L81.64,284.53L82.94,285.12L85.53,285.13L86.82,284.75L88.12,279.43L89.42,279.18L90.71,284.48L92.01,284.87L95.9,284.62L97.19,279.52L98.49,279.47L99.78,284.73L102.38,285.15L103.67,285.05L104.97,284.88L106.26,279.62L107.56,279.31L108.85,284.8L111.45,285.27L112.74,284.68L114.04,284.2L115.33,278.01L116.63,277.13L117.93,283.79L119.22,286.57L120.52,286.93L123.11,286.77L124.41,281.07L125.7,280.88L127,286.04L129.59,286.15L130.88,285.88L132.18,285.86L133.48,280.94L134.77,280.45L136.07,285.76L139.96,285.76L141.25,285.69L142.55,280.62L143.84,280.3L145.14,285.44L146.44,285.32L150.32,285.18L151.62,280.2L152.92,279.87L154.21,285.51L156.8,285.55L158.1,285.22L159.39,284.62L160.69,279.27L161.99,278.26L163.28,282.9L167.17,281.94L168.47,280.88L169.76,275.42L171.06,274.91L172.35,280.07L173.65,280.71L176.24,280.45L177.54,279.94L178.83,274.41L180.13,273.74L181.42,279.41L182.72,279.64L186.61,279.24L187.9,273.56L189.2,273.04L190.5,278.94L193.09,279.84L194.38,279.55L195.68,279.55L196.98,272.85L198.27,272.55L199.57,279.53L203.45,281.49L204.75,281.39L207.34,268.76L208.64,275.07L213.82,275.07L215.12,268.73L216.41,268.69L217.71,275.07L221.6,275.08L222.89,274.59L224.19,268.25L225.48,268.46L226.78,274.7L228.08,274.56L231.96,273.88L233.26,267.56L234.56,267.48L235.85,274.03L241.04,273.75L242.33,267.11L243.63,267.07L244.92,273.67L250.11,273.55L251.4,266.86L252.7,266.79L253.99,273.06L259.18,272.68L260.47,265.44L261.77,264.76L263.07,270.71L268.25,269.56L269.55,262.86L270.84,262.7L272.14,268.17L273.43,268.57L274.73,267.08L277.32,271.57L278.62,265.3L279.91,265.63L281.21,272.29L285.1,272.71L286.39,272.7L287.69,266.14L288.98,266.13L290.28,272.74L291.58,272.77L295.46,272.76L296.76,266.23L298.05,266.24L299.35,272.83L304.53,272.6L305.83,266.1L307.13,266.09L308.42,272.61L313.61,272.53L314.9,266.14L316.2,266.24L317.49,272.69L322.68,272.69L323.97,266.19L325.27,266.18L326.56,272.7L331.75,272.7L333.04,266.18L334.34,266.18L335.64,272.69L340.82,272.66L342.12,266.16L343.41,266.15L344.71,272.67L349.89,272.64L351.19,266.29L352.48,266.34L353.78,272.54L358.96,272.72L360.26,266.21L361.55,266.17L362.85,272.7L368.03,272.66L369.33,266.11L370.62,266.09L371.92,272.65L377.1,272.6L378.4,266.04L379.7,266.01L380.99,272.59L386.18,272.55L387.47,265.98L388.77,265.95L390.06,272.4L393.95,272.51L395.25,272.13L396.54,265.9L397.84,265.73L399.13,271.98L400.43,272.14L404.32,272.32L405.61,265.83L406.91,265.79L408.21,272.32L413.39,272.31L414.68,265.84L415.98,265.8L417.28,272.31L422.46,271.85L423.76,265.71L425.05,265.67L426.35,271.85L428.94,272.04L430.24,272L431.53,271.9L432.83,264.96L434.12,264.91L435.42,271.16L439.31,271.71L440.6,271.62L441.9,265.5L443.19,265.46L444.49,271.58L445.79,271.74L449.67,271.93L450.97,265.42L452.27,265.38L453.56,271.43L454.86,271.96L456.15,271.5L457.45,271.96L458.75,269.45L460.04,263.64L461.34,264.78L462.63,270.75L463.93,271.03L466.52,271.52L467.82,271.44L469.11,264.03L470.41,264.5L471.7,271.4L473,267.75" style="vector-effect: non-scaling-stroke; fill: none; stroke: rgb(148, 103, 189); stroke-opacity: 1; stroke-width: 2px; opacity: 1;"/></g><g class="points"/><g class="text"/></g></g></g><g class="overplot"/><path class="xlines-above crisp" d="M0,0" style="fill: none;"/><path class="ylines-above crisp" d="M0,0" style="fill: none;"/><g class="overlines-above"/><g class="xaxislayer-above"><g class="xtick"><text text-anchor="middle" x="0" y="433" transform="translate(117.58,0)" style="font-family: 'Open Sans', verdana, arial, sans-serif; font-size: 12px; fill: rgb(68, 68, 68); fill-opacity: 1; white-space: pre;">Jul 2019</text></g><g class="xtick"><text text-anchor="middle" x="0" y="433" transform="translate(197.93,0)" style="font-family: 'Open Sans', verdana, arial, sans-serif; font-size: 12px; fill: rgb(68, 68, 68); fill-opacity: 1; white-space: pre;">Sep 2019</text></g><g class="xtick"><text text-anchor="middle" x="0" y="433" transform="translate(276.98,0)" style="font-family: 'Open Sans', verdana, arial, sans-serif; font-size: 12px; fill: rgb(68, 68, 68); fill-opacity: 1; white-space: pre;">Nov 2019</text></g><g class="xtick"><text text-anchor="middle" x="0" y="433" transform="translate(356.02,0)" style="font-family: 'Open Sans', verdana, arial, sans-serif; font-size: 12px; fill: rgb(68, 68, 68); fill-opacity: 1; white-space: pre;">Jan 2020</text></g><g class="xtick"><text text-anchor="middle" x="0" y="433" transform="translate(433.78,0)" style="font-family: 'Open Sans', verdana, arial, sans-serif; font-size: 12px; fill: rgb(68, 68, 68); fill-opacity: 1; white-space: pre;">Mar 2020</text></g><g class="xtick"><text text-anchor="middle" x="0" y="433" transform="translate(512.8299999999999,0)" style="font-family: 'Open Sans', verdana, arial, sans-serif; font-size: 12px; fill: rgb(68, 68, 68); fill-opacity: 1; white-space: pre;">May 2020</text></g></g><g class="yaxislayer-above"><g class="ytick"><text text-anchor="end" x="79" y="4.199999999999999" transform="translate(0,399.01)" style="font-family: 'Open Sans', verdana, arial, sans-serif; font-size: 12px; fill: rgb(68, 68, 68); fill-opacity: 1; white-space: pre;">80</text></g><g class="ytick"><text text-anchor="end" x="79" y="4.199999999999999" transform="translate(0,350.87)" style="font-family: 'Open Sans', verdana, arial, sans-serif; font-size: 12px; fill: rgb(68, 68, 68); fill-opacity: 1; white-space: pre;">100</text></g><g class="ytick"><text text-anchor="end" x="79" y="4.199999999999999" transform="translate(0,302.74)" style="font-family: 'Open Sans', verdana, arial, sans-serif; font-size: 12px; fill: rgb(68, 68, 68); fill-opacity: 1; white-space: pre;">120</text></g><g class="ytick"><text text-anchor="end" x="79" y="4.199999999999999" transform="translate(0,254.6)" style="font-family: 'Open Sans', verdana, arial, sans-serif; font-size: 12px; fill: rgb(68, 68, 68); fill-opacity: 1; white-space: pre;">140</text></g><g class="ytick"><text text-anchor="end" x="79" y="4.199999999999999" transform="translate(0,206.47)" style="font-family: 'Open Sans', verdana, arial, sans-serif; font-size: 12px; fill: rgb(68, 68, 68); fill-opacity: 1; white-space: pre;">160</text></g><g class="ytick"><text text-anchor="end" x="79" y="4.199999999999999" transform="translate(0,158.34)" style="font-family: 'Open Sans', verdana, arial, sans-serif; font-size: 12px; fill: rgb(68, 68, 68); fill-opacity: 1; white-space: pre;">180</text></g><g class="ytick"><text text-anchor="end" x="79" y="4.199999999999999" transform="translate(0,110.2)" style="font-family: 'Open Sans', verdana, arial, sans-serif; font-size: 12px; fill: rgb(68, 68, 68); fill-opacity: 1; white-space: pre;">200</text></g></g><g class="overaxes-above"/></g></g><g class="polarlayer"/><g class="ternarylayer"/><g class="geolayer"/><g class="funnelarealayer"/><g class="pielayer"/><g class="treemaplayer"/><g class="sunburstlayer"/><g class="glimages"/><defs id="topdefs-26575b"><g class="clips"/><clipPath id="legend26575b"><rect width="126" height="105" x="0" y="0"/></clipPath></defs><g class="layer-above"><g class="imagelayer"/><g class="shapelayer"/></g><g class="infolayer"><g class="legend" pointer-events="all" transform="translate(562.46,100)"><rect class="bg" shape-rendering="crispEdges" width="126" height="105" x="0" y="0" style="stroke: rgb(68, 68, 68); stroke-opacity: 1; fill: rgb(255, 255, 255); fill-opacity: 1; stroke-width: 0px;"/><g class="scrollbox" transform="" clip-path="url('#legend26575b')"><g class="groups"><g class="traces" transform="translate(0,14.5)" style="opacity: 1;"><text class="legendtext" text-anchor="start" x="40" y="4.680000000000001" style="font-family: 'Open Sans', verdana, arial, sans-serif; font-size: 12px; fill: rgb(68, 68, 68); fill-opacity: 1; white-space: pre;">Manhattan</text><g class="layers" style="opacity: 1;"><g class="legendfill"/><g class="legendlines"><path class="js-line" d="M5,0h30" style="fill: none; stroke: rgb(31, 119, 180); stroke-opacity: 1; stroke-width: 2px;"/></g><g class="legendsymbols"><g class="legendpoints"/></g></g><rect class="legendtoggle" x="0" y="-9.5" width="120.703125" height="19" style="fill: rgb(0, 0, 0); fill-opacity: 0;"/></g><g class="traces" transform="translate(0,33.5)" style="opacity: 1;"><text class="legendtext" text-anchor="start" x="40" y="4.680000000000001" style="font-family: 'Open Sans', verdana, arial, sans-serif; font-size: 12px; fill: rgb(68, 68, 68); fill-opacity: 1; white-space: pre;">Brooklyn</text><g class="layers" style="opacity: 1;"><g class="legendfill"/><g class="legendlines"><path class="js-line" d="M5,0h30" style="fill: none; stroke: rgb(255, 127, 14); stroke-opacity: 1; stroke-width: 2px;"/></g><g class="legendsymbols"><g class="legendpoints"/></g></g><rect class="legendtoggle" x="0" y="-9.5" width="120.703125" height="19" style="fill: rgb(0, 0, 0); fill-opacity: 0;"/></g><g class="traces" transform="translate(0,52.5)" style="opacity: 1;"><text class="legendtext" text-anchor="start" x="40" y="4.680000000000001" style="font-family: 'Open Sans', verdana, arial, sans-serif; font-size: 12px; fill: rgb(68, 68, 68); fill-opacity: 1; white-space: pre;">Queens</text><g class="layers" style="opacity: 1;"><g class="legendfill"/><g class="legendlines"><path class="js-line" d="M5,0h30" style="fill: none; stroke: rgb(44, 160, 44); stroke-opacity: 1; stroke-width: 2px;"/></g><g class="legendsymbols"><g class="legendpoints"/></g></g><rect class="legendtoggle" x="0" y="-9.5" width="120.703125" height="19" style="fill: rgb(0, 0, 0); fill-opacity: 0;"/></g><g class="traces" transform="translate(0,71.5)" style="opacity: 1;"><text class="legendtext" text-anchor="start" x="40" y="4.680000000000001" style="font-family: 'Open Sans', verdana, arial, sans-serif; font-size: 12px; fill: rgb(68, 68, 68); fill-opacity: 1; white-space: pre;">Staten Island</text><g class="layers" style="opacity: 1;"><g class="legendfill"/><g class="legendlines"><path class="js-line" d="M5,0h30" style="fill: none; stroke: rgb(214, 39, 40); stroke-opacity: 1; stroke-width: 2px;"/></g><g class="legendsymbols"><g class="legendpoints"/></g></g><rect class="legendtoggle" x="0" y="-9.5" width="120.703125" height="19" style="fill: rgb(0, 0, 0); fill-opacity: 0;"/></g><g class="traces" transform="translate(0,90.5)" style="opacity: 1;"><text class="legendtext" text-anchor="start" x="40" y="4.680000000000001" style="font-family: 'Open Sans', verdana, arial, sans-serif; font-size: 12px; fill: rgb(68, 68, 68); fill-opacity: 1; white-space: pre;">Bronx</text><g class="layers" style="opacity: 1;"><g class="legendfill"/><g class="legendlines"><path class="js-line" d="M5,0h30" style="fill: none; stroke: rgb(148, 103, 189); stroke-opacity: 1; stroke-width: 2px;"/></g><g class="legendsymbols"><g class="legendpoints"/></g></g><rect class="legendtoggle" x="0" y="-9.5" width="120.703125" height="19" style="fill: rgb(0, 0, 0); fill-opacity: 0;"/></g></g></g><rect class="scrollbar" rx="20" ry="3" width="0" height="0" x="0" y="0" style="fill: rgb(128, 139, 164); fill-opacity: 1;"/></g><g class="g-gtitle"><text class="gtitle" x="350" y="50" text-anchor="middle" dy="0em" style="font-family: 'Open Sans', verdana, arial, sans-serif; font-size: 17px; fill: rgb(68, 68, 68); opacity: 1; font-weight: normal; white-space: pre;">Mean Price of Airbnb Listings by Date and Borough (Outliers Removed)</text></g><g class="g-xtitle"><text class="xtitle" x="316.5" y="472" text-anchor="middle" style="font-family: 'Open Sans', verdana, arial, sans-serif; font-size: 14px; fill: rgb(68, 68, 68); opacity: 1; font-weight: normal; white-space: pre;">Date</text></g><g class="g-ytitle"><text class="ytitle" transform="rotate(-90,42,260)" x="42" y="260" text-anchor="middle" style="font-family: 'Open Sans', verdana, arial, sans-serif; font-size: 14px; fill: rgb(68, 68, 68); opacity: 1; font-weight: normal; white-space: pre;">Mean Price ($)</text></g></g></svg>