<svg class="main-svg" xmlns="http://www.w3.org/2000/svg" xmlns:xlink="http://www.w3.org/1999/xlink" width="700" height="600" style="" viewBox="0 0 700 600"><rect x="0" y="0" width="700" height="600" style="fill: rgb(255, 255, 255); fill-opacity: 1;"/><defs id="defs-066f25"><g class="clips"><clipPath id="clip066f25xyplot" class="plotclip"><rect width="478" height="157.5"/></clipPath><clipPath id="clip066f25x2y2plot" class="plotclip"><rect width="478" height="157.5"/></clipPath><clipPath class="axesclip" id="clip066f25x"><rect x="80" y="0" width="478" height="600"/></clipPath><clipPath class="axesclip" id="clip066f25y"><rect x="0" y="100" width="700" height="157.5"/></clipPath><clipPath class="axesclip" id="clip066f25xy"><rect x="80" y="100" width="478" height="157.5"/></clipPath><clipPath class="axesclip" id="clip066f25y2"><rect x="0" y="362.5" width="700" height="157.5"/></clipPath><clipPath class="axesclip" id="clip066f25xy2"><rect x="80" y="362.5" width="478" height="157.5"/></clipPath><clipPath class="axesclip" id="clip066f25x2"><rect x="80" y="0" width="478" height="600"/></clipPath><clipPath class="axesclip" id="clip066f25x2y"><rect x="80" y="100" width="478" height="157.5"/></clipPath><clipPath class="axesclip" id="clip066f25x2y2"><rect x="80" y="362.5" width="478" height="157.5"/></clipPath></g><g class="gradients"/></defs><g class="bglayer"/><g class="layer-below"><g class="imagelayer"/><g class="shapelayer"/></g><g class="cartesianlayer"><g class="subplot xy"><g class="layer-subplot"><g class="shapelayer"/><g class="imagelayer"/></g><g class="gridlayer"><g class="x"><path class="xgrid crisp" transform="translate(98.36,0)" d="M0,100v157.5" style="stroke: rgb(238, 238, 238); stroke-opacity: 1; stroke-width: 1px;"/><path class="xgrid crisp" transform="translate(219.01,0)" d="M0,100v157.5" style="stroke: rgb(238, 238, 238); stroke-opacity: 1; stroke-width: 1px;"/><path class="xgrid crisp" transform="translate(337.69,0)" d="M0,100v157.5" style="stroke: rgb(238, 238, 238); stroke-opacity: 1; stroke-width: 1px;"/><path class="xgrid crisp" transform="translate(458.33,0)" d="M0,100v157.5" style="stroke: rgb(238, 238, 238); stroke-opacity: 1; stroke-width: 1px;"/></g><g class="y"><path class="ygrid crisp" transform="translate(0,248.62)" d="M80,0h478" style="stroke: rgb(238, 238, 238); stroke-opacity: 1; stroke-width: 1px;"/><path class="ygrid crisp" transform="translate(0,210.69)" d="M80,0h478" style="stroke: rgb(238, 238, 238); stroke-opacity: 1; stroke-width: 1px;"/><path class="ygrid crisp" transform="translate(0,172.76999999999998)" d="M80,0h478" style="stroke: rgb(238, 238, 238); stroke-opacity: 1; stroke-width: 1px;"/><path class="ygrid crisp" transform="translate(0,134.84)" d="M80,0h478" style="stroke: rgb(238, 238, 238); stroke-opacity: 1; stroke-width: 1px;"/></g></g><g class="zerolinelayer"/><path class="xlines-below"/><path class="ylines-below"/><g class="overlines-below"/><g class="xaxislayer-below"/><g class="yaxislayer-below"/><g class="overaxes-below"/><g class="plot" transform="translate(80,100)" clip-path="url('#clip066f25xyplot')"><g class="scatterlayer mlayer"><g class="trace scatter trace4d7241" style="stroke-miterlimit: 2; opacity: 1;"><g class="fills"/><g class="errorbars"/><g class="lines"><path class="js-line" d="M0,7.88L1.31,43.55L1.97,47.23L2.62,49.38L3.28,45.5L3.93,45.24L4.59,60.77L5.9,69.55L6.56,69.14L7.87,64.52L8.52,65.63L9.84,79.3L10.49,79.17L11.8,73.26L12.46,67.89L13.11,68.07L13.77,79.94L15.08,89.2L15.74,90.14L16.39,89.59L17.05,87.56L18.36,100.33L19.02,104.94L20.33,106.42L20.98,107.5L21.64,107.44L22.29,108.14L22.95,111.57L23.6,108.81L25.57,104.81L26.23,103.6L26.88,103.84L27.54,108.41L28.19,108.94L28.85,108.33L30.82,106.21L31.47,106.37L32.78,109.76L33.44,109.23L35.41,108.68L36.06,111.11L37.37,117.55L38.03,118.9L39.34,117.2L40,117.77L41.96,122.21L42.62,121.51L44.59,122.7L45.24,124.98L46.55,130.06L47.21,131.09L49.83,133.29L50.49,136.52L52.46,136.94L53.11,136.12L54.42,134.38L55.08,137.21L56.39,142.85L57.05,142.95L58.36,140.23L59.01,125.22L59.67,104.11L60.32,108.37L60.98,107.76L61.64,105.61L63.6,101.58L64.26,103.52L65.57,102.34L66.22,101.24L68.19,100.02L68.85,102.06L70.16,102.18L70.81,101.87L72.13,101.06L72.78,101.6L74.09,105.05L74.75,105.42L76.72,107L77.37,107.71L78.03,111.33L78.68,109.68L79.34,109.72L79.99,108.65L81.31,107.18L81.96,107.66L83.93,112.63L84.58,112.63L86.55,112.27L87.21,113.74L88.52,114.32L89.17,113.98L91.14,112.87L91.8,113.23L93.76,113.29L94.42,112.91L96.39,115.69L97.04,116.33L98.35,115.72L99.01,114.5L99.67,113.4L100.32,114.49L102.94,124.16L103.6,124.64L107.53,128.27L108.19,128.27L110.16,128.55L110.81,128.29L112.78,125.73L113.43,126.29L115.4,129.27L116.06,129.28L117.37,128.03L118.02,115.81L118.68,95.48L119.34,95.84L119.99,95.94L121.3,95.83L121.96,95.44L123.27,96.2L123.93,97.47L125.89,98.58L126.55,98.55L130.48,99.03L131.14,98.57L131.79,98.54L132.45,96.95L135.73,90.97L136.38,90.07L137.7,89.71L138.35,90.15L140.32,102.36L140.97,103.99L142.94,106.45L143.6,106.53L150.15,107.2L150.81,107.23L158.68,107.4L159.33,108.37L176.38,109.05L177.04,106.58L178.35,102.44L179,102.43L190.81,102.26L191.46,102.33L194.74,102.38L195.4,102.34L219.66,102.85L220.31,103.03L238.02,103.7L238.67,96.74L239.98,49.4L240.64,50.7L241.29,52.65L241.95,49.45L242.61,50.2L243.92,69.83L244.57,71.71L245.88,71.56L246.54,68.74L247.2,69.42L247.85,80.2L248.51,83.08L249.16,82.75L249.82,81.66L251.79,71.66L252.44,82.61L253.75,88.39L254.41,86.05L255.72,74.1L256.38,74.43L257.03,91.75L258.34,109.54L259,109.55L259.65,107.24L260.31,108.26L261.62,117.35L262.28,117.16L262.93,116.71L264.9,111.3L265.56,111.69L266.87,117.25L267.52,116.96L269.49,116.32L270.15,117.1L271.46,121.71L272.11,121.43L274.08,119.19L274.74,120.36L276.05,126.74L276.7,127.69L277.36,130.05L278.01,127.8L278.67,126.65L279.33,127.38L280.64,129.77L281.29,130.61L283.26,129.77L283.91,132.13L285.23,137.57L285.88,138.62L287.85,140.51L288.5,142.43L289.82,145.95L290.47,145.72L291.78,145.18L292.44,143.27L293.09,143.47L293.75,146.24L295.06,148.52L295.72,148.02L297.68,141.1L298.34,116.27L299,120.73L299.65,120.39L300.31,118.79L302.27,113.71L302.93,115.75L304.24,114.96L304.9,113.89L306.21,112.74L306.86,112.86L308.18,115.4L308.83,115.59L310.8,113.65L311.45,114.72L312.77,118.49L313.42,119.27L314.73,119.19L315.39,119.3L316.04,120.6L316.7,124.23L317.36,126.7L318.01,124.61L319.98,120.62L320.63,121.01L321.95,124.48L322.6,124.68L325.22,123.66L325.88,125.24L327.19,126.3L327.85,126.12L329.81,124.77L330.47,126.17L332.44,125.67L333.09,126.18L334.4,126.82L335.06,128.37L336.37,129.37L337.03,129.31L338.99,127.19L339.65,129.73L341.62,136.47L342.27,137.15L346.21,140.78L346.86,140.75L348.17,141.38L348.83,142.37L353.42,142.19L354.07,141.6L356.04,137.79L356.7,132.17L357.35,106.57L358.01,106.76L358.66,106.78L359.98,106.05L360.63,105.39L361.94,105.68L362.6,107.01L364.57,109.11L365.22,109.16L366.53,109.51L367.19,110.4L368.5,111.01L369.16,110.67L371.12,108.95L371.78,107.84L375.71,101.09L376.37,100.58L377.68,100.68L378.33,105.68L380.3,114.14L380.96,115.26L384.24,116.42L384.89,116.49L390.79,116.51L391.45,116.56L398.01,116.78L398.66,117.81L405.22,117.77L405.87,117.78L415.05,118.12L415.71,116.69L417.02,108.79L417.68,108.76L435.38,108.3L436.04,108.28L439.97,107.92L440.63,107.9L448.49,107.99L449.15,108.15L476.69,109.05L477.34,109.78L478,149.63" style="vector-effect: non-scaling-stroke; fill: none; stroke: rgb(31, 119, 180); stroke-opacity: 1; stroke-width: 2px; opacity: 1;"/></g><g class="points"/><g class="text"/></g></g></g><g class="overplot"/><path class="xlines-above crisp" d="M0,0" style="fill: none;"/><path class="ylines-above crisp" d="M0,0" style="fill: none;"/><g class="overlines-above"/><g class="xaxislayer-above"><g class="xtick"><text text-anchor="middle" x="0" y="270.5" transform="translate(98.36,0)" style="font-family: 'Open Sans', verdana, arial, sans-serif; font-size: 12px; fill: rgb(68, 68, 68); fill-opacity: 1; white-space: pre;">Jul 2018</text></g><g class="xtick"><text text-anchor="middle" x="0" y="270.5" transform="translate(219.01,0)" style="font-family: 'Open Sans', verdana, arial, sans-serif; font-size: 12px; fill: rgb(68, 68, 68); fill-opacity: 1; white-space: pre;">Jan 2019</text></g><g class="xtick"><text text-anchor="middle" x="0" y="270.5" transform="translate(337.69,0)" style="font-family: 'Open Sans', verdana, arial, sans-serif; font-size: 12px; fill: rgb(68, 68, 68); fill-opacity: 1; white-space: pre;">Jul 2019</text></g><g class="xtick"><text text-anchor="middle" x="0" y="270.5" transform="translate(458.33,0)" style="font-family: 'Open Sans', verdana, arial, sans-serif; font-size: 12px; fill: rgb(68, 68, 68); fill-opacity: 1; white-space: pre;">Jan 2020</text></g></g><g class="yaxislayer-above"><g class="ytick"><text text-anchor="end" x="79" y="4.199999999999999" transform="translate(0,248.62)" style="font-family: 'Open Sans', verdana, arial, sans-serif; font-size: 12px; fill: rgb(68, 68, 68); fill-opacity: 1; white-space: pre;">60</text></g><g class="ytick"><text text-anchor="end" x="79" y="4.199999999999999" transform="translate(0,210.69)" style="font-family: 'Open Sans', verdana, arial, sans-serif; font-size: 12px; fill: rgb(68, 68, 68); fill-opacity: 1; white-space: pre;">70</text></g><g class="ytick"><text text-anchor="end" x="79" y="4.199999999999999" transform="translate(0,172.76999999999998)" style="font-family: 'Open Sans', verdana, arial, sans-serif; font-size: 12px; fill: rgb(68, 68, 68); fill-opacity: 1; white-space: pre;">80</text></g><g class="ytick"><text text-anchor="end" x="79" y="4.199999999999999" transform="translate(0,134.84)" style="font-family: 'Open Sans', verdana, arial, sans-serif; font-size: 12px; fill: rgb(68, 68, 68); fill-opacity: 1; white-space: pre;">90</text></g></g><g class="overaxes-above"/></g><g class="subplot x2y2"><g class="layer-subplot"><g class="shapelayer"/><g class="imagelayer"/></g><g class="gridlayer"><g class="x2"><path class="x2grid crisp" transform="translate(107.65,0)" d="M0,362.5v157.5" style="stroke: rgb(238, 238, 238); stroke-opacity: 1; stroke-width: 1px;"/><path class="x2grid crisp" transform="translate(146.07999999999998,0)" d="M0,362.5v157.5" style="stroke: rgb(238, 238, 238); stroke-opacity: 1; stroke-width: 1px;"/><path class="x2grid crisp" transform="translate(184.5,0)" d="M0,362.5v157.5" style="stroke: rgb(238, 238, 238); stroke-opacity: 1; stroke-width: 1px;"/><path class="x2grid crisp" transform="translate(222.93,0)" d="M0,362.5v157.5" style="stroke: rgb(238, 238, 238); stroke-opacity: 1; stroke-width: 1px;"/><path class="x2grid crisp" transform="translate(261.36,0)" d="M0,362.5v157.5" style="stroke: rgb(238, 238, 238); stroke-opacity: 1; stroke-width: 1px;"/><path class="x2grid crisp" transform="translate(299.78999999999996,0)" d="M0,362.5v157.5" style="stroke: rgb(238, 238, 238); stroke-opacity: 1; stroke-width: 1px;"/><path class="x2grid crisp" transform="translate(338.21,0)" d="M0,362.5v157.5" style="stroke: rgb(238, 238, 238); stroke-opacity: 1; stroke-width: 1px;"/><path class="x2grid crisp" transform="translate(376.64,0)" d="M0,362.5v157.5" style="stroke: rgb(238, 238, 238); stroke-opacity: 1; stroke-width: 1px;"/><path class="x2grid crisp" transform="translate(415.07,0)" d="M0,362.5v157.5" style="stroke: rgb(238, 238, 238); stroke-opacity: 1; stroke-width: 1px;"/><path class="x2grid crisp" transform="translate(453.5,0)" d="M0,362.5v157.5" style="stroke: rgb(238, 238, 238); stroke-opacity: 1; stroke-width: 1px;"/><path class="x2grid crisp" transform="translate(491.92,0)" d="M0,362.5v157.5" style="stroke: rgb(238, 238, 238); stroke-opacity: 1; stroke-width: 1px;"/><path class="x2grid crisp" transform="translate(530.35,0)" d="M0,362.5v157.5" style="stroke: rgb(238, 238, 238); stroke-opacity: 1; stroke-width: 1px;"/></g><g class="y2"><path class="y2grid crisp" transform="translate(0,497.32)" d="M80,0h478" style="stroke: rgb(238, 238, 238); stroke-opacity: 1; stroke-width: 1px;"/><path class="y2grid crisp" transform="translate(0,456.42)" d="M80,0h478" style="stroke: rgb(238, 238, 238); stroke-opacity: 1; stroke-width: 1px;"/><path class="y2grid crisp" transform="translate(0,415.53)" d="M80,0h478" style="stroke: rgb(238, 238, 238); stroke-opacity: 1; stroke-width: 1px;"/><path class="y2grid crisp" transform="translate(0,374.63)" d="M80,0h478" style="stroke: rgb(238, 238, 238); stroke-opacity: 1; stroke-width: 1px;"/></g></g><g class="zerolinelayer"/><path class="xlines-below"/><path class="ylines-below"/><g class="overlines-below"/><g class="xaxislayer-below"/><g class="yaxislayer-below"/><g class="overaxes-below"/><g class="plot" transform="translate(80,362.5)" clip-path="url('#clip066f25x2y2plot')"><g class="scatterlayer mlayer"><g class="trace scatter trace6d3298" style="stroke-miterlimit: 2; opacity: 1;"><g class="fills"/><g class="errorbars"/><g class="lines"><path class="js-line" d="M450.35,11.63L411.92,83.87L373.5,82.34L335.07,82.72L296.64,99.14L258.21,94.5L219.79,73.72L181.36,138.35L142.93,111.93L104.5,94.17L66.08,145.88L27.65,98.17" style="vector-effect: non-scaling-stroke; fill: none; stroke: rgb(255, 127, 14); stroke-opacity: 1; stroke-width: 2px; opacity: 1;"/></g><g class="points"><path class="point" transform="translate(450.35,11.63)" d="M3,0A3,3 0 1,1 0,-3A3,3 0 0,1 3,0Z" style="opacity: 1; stroke-width: 0px; fill: rgb(255, 127, 14); fill-opacity: 1;"/><path class="point" transform="translate(411.92,83.87)" d="M3,0A3,3 0 1,1 0,-3A3,3 0 0,1 3,0Z" style="opacity: 1; stroke-width: 0px; fill: rgb(255, 127, 14); fill-opacity: 1;"/><path class="point" transform="translate(373.5,82.34)" d="M3,0A3,3 0 1,1 0,-3A3,3 0 0,1 3,0Z" style="opacity: 1; stroke-width: 0px; fill: rgb(255, 127, 14); fill-opacity: 1;"/><path class="point" transform="translate(335.07,82.72)" d="M3,0A3,3 0 1,1 0,-3A3,3 0 0,1 3,0Z" style="opacity: 1; stroke-width: 0px; fill: rgb(255, 127, 14); fill-opacity: 1;"/><path class="point" transform="translate(296.64,99.14)" d="M3,0A3,3 0 1,1 0,-3A3,3 0 0,1 3,0Z" style="opacity: 1; stroke-width: 0px; fill: rgb(255, 127, 14); fill-opacity: 1;"/><path class="point" transform="translate(258.21,94.5)" d="M3,0A3,3 0 1,1 0,-3A3,3 0 0,1 3,0Z" style="opacity: 1; stroke-width: 0px; fill: rgb(255, 127, 14); fill-opacity: 1;"/><path class="point" transform="translate(219.79,73.72)" d="M3,0A3,3 0 1,1 0,-3A3,3 0 0,1 3,0Z" style="opacity: 1; stroke-width: 0px; fill: rgb(255, 127, 14); fill-opacity: 1;"/><path class="point" transform="translate(181.36,138.35)" d="M3,0A3,3 0 1,1 0,-3A3,3 0 0,1 3,0Z" style="opacity: 1; stroke-width: 0px; fill: rgb(255, 127, 14); fill-opacity: 1;"/><path class="point" transform="translate(142.93,111.93)" d="M3,0A3,3 0 1,1 0,-3A3,3 0 0,1 3,0Z" style="opacity: 1; stroke-width: 0px; fill: rgb(255, 127, 14); fill-opacity: 1;"/><path class="point" transform="translate(104.5,94.17)" d="M3,0A3,3 0 1,1 0,-3A3,3 0 0,1 3,0Z" style="opacity: 1; stroke-width: 0px; fill: rgb(255, 127, 14); fill-opacity: 1;"/><path class="point" transform="translate(66.08,145.88)" d="M3,0A3,3 0 1,1 0,-3A3,3 0 0,1 3,0Z" style="opacity: 1; stroke-width: 0px; fill: rgb(255, 127, 14); fill-opacity: 1;"/><path class="point" transform="translate(27.65,98.17)" d="M3,0A3,3 0 1,1 0,-3A3,3 0 0,1 3,0Z" style="opacity: 1; stroke-width: 0px; fill: rgb(255, 127, 14); fill-opacity: 1;"/></g><g class="text"/></g></g></g><g class="overplot"/><path class="xlines-above crisp" d="M0,0" style="fill: none;"/><path class="ylines-above crisp" d="M0,0" style="fill: none;"/><g class="overlines-above"/><g class="xaxislayer-above"><g class="x2tick"><text text-anchor="start" x="0" y="533" transform="translate(107.65,0) rotate(30,0,527)" style="font-family: 'Open Sans', verdana, arial, sans-serif; font-size: 12px; fill: rgb(68, 68, 68); fill-opacity: 1; white-space: pre;">July</text></g><g class="x2tick"><text text-anchor="start" x="0" y="533" transform="translate(146.07999999999998,0) rotate(30,0,527)" style="font-family: 'Open Sans', verdana, arial, sans-serif; font-size: 12px; fill: rgb(68, 68, 68); fill-opacity: 1; white-space: pre;">August</text></g><g class="x2tick"><text text-anchor="start" x="0" y="533" transform="translate(184.5,0) rotate(30,0,527)" style="font-family: 'Open Sans', verdana, arial, sans-serif; font-size: 12px; fill: rgb(68, 68, 68); fill-opacity: 1; white-space: pre;">September</text></g><g class="x2tick"><text text-anchor="start" x="0" y="533" transform="translate(222.93,0) rotate(30,0,527)" style="font-family: 'Open Sans', verdana, arial, sans-serif; font-size: 12px; fill: rgb(68, 68, 68); fill-opacity: 1; white-space: pre;">October</text></g><g class="x2tick"><text text-anchor="start" x="0" y="533" transform="translate(261.36,0) rotate(30,0,527)" style="font-family: 'Open Sans', verdana, arial, sans-serif; font-size: 12px; fill: rgb(68, 68, 68); fill-opacity: 1; white-space: pre;">November</text></g><g class="x2tick"><text text-anchor="start" x="0" y="533" transform="translate(299.78999999999996,0) rotate(30,0,527)" style="font-family: 'Open Sans', verdana, arial, sans-serif; font-size: 12px; fill: rgb(68, 68, 68); fill-opacity: 1; white-space: pre;">December</text></g><g class="x2tick"><text text-anchor="start" x="0" y="533" transform="translate(338.21,0) rotate(30,0,527)" style="font-family: 'Open Sans', verdana, arial, sans-serif; font-size: 12px; fill: rgb(68, 68, 68); fill-opacity: 1; white-space: pre;">January</text></g><g class="x2tick"><text text-anchor="start" x="0" y="533" transform="translate(376.64,0) rotate(30,0,527)" style="font-family: 'Open Sans', verdana, arial, sans-serif; font-size: 12px; fill: rgb(68, 68, 68); fill-opacity: 1; white-space: pre;">February</text></g><g class="x2tick"><text text-anchor="start" x="0" y="533" transform="translate(415.07,0) rotate(30,0,527)" style="font-family: 'Open Sans', verdana, arial, sans-serif; font-size: 12px; fill: rgb(68, 68, 68); fill-opacity: 1; white-space: pre;">March</text></g><g class="x2tick"><text text-anchor="start" x="0" y="533" transform="translate(453.5,0) rotate(30,0,527)" style="font-family: 'Open Sans', verdana, arial, sans-serif; font-size: 12px; fill: rgb(68, 68, 68); fill-opacity: 1; white-space: pre;">April</text></g><g class="x2tick"><text text-anchor="start" x="0" y="533" transform="translate(491.92,0) rotate(30,0,527)" style="font-family: 'Open Sans', verdana, arial, sans-serif; font-size: 12px; fill: rgb(68, 68, 68); fill-opacity: 1; white-space: pre;">May</text></g><g class="x2tick"><text text-anchor="start" x="0" y="533" transform="translate(530.35,0) rotate(30,0,527)" style="font-family: 'Open Sans', verdana, arial, sans-serif; font-size: 12px; fill: rgb(68, 68, 68); fill-opacity: 1; white-space: pre;">June</text></g></g><g class="yaxislayer-above"><g class="y2tick"><text text-anchor="end" x="79" y="4.199999999999999" transform="translate(0,497.32)" style="font-family: 'Open Sans', verdana, arial, sans-serif; font-size: 12px; fill: rgb(68, 68, 68); fill-opacity: 1; white-space: pre;">65</text></g><g class="y2tick"><text text-anchor="end" x="79" y="4.199999999999999" transform="translate(0,456.42)" style="font-family: 'Open Sans', verdana, arial, sans-serif; font-size: 12px; fill: rgb(68, 68, 68); fill-opacity: 1; white-space: pre;">70</text></g><g class="y2tick"><text text-anchor="end" x="79" y="4.199999999999999" transform="translate(0,415.53)" style="font-family: 'Open Sans', verdana, arial, sans-serif; font-size: 12px; fill: rgb(68, 68, 68); fill-opacity: 1; white-space: pre;">75</text></g><g class="y2tick"><text text-anchor="end" x="79" y="4.199999999999999" transform="translate(0,374.63)" style="font-family: 'Open Sans', verdana, arial, sans-serif; font-size: 12px; fill: rgb(68, 68, 68); fill-opacity: 1; white-space: pre;">80</text></g></g><g class="overaxes-above"/></g></g><g class="polarlayer"/><g class="ternarylayer"/><g class="geolayer"/><g class="funnelarealayer"/><g class="pielayer"/><g class="treemaplayer"/><g class="sunburstlayer"/><g class="glimages"/><defs id="topdefs-066f25"><g class="clips"/><clipPath id="legend066f25"><rect width="120" height="48" x="0" y="0"/></clipPath></defs><g class="layer-above"><g class="imagelayer"/><g class="shapelayer"/></g><g class="infolayer"><g class="legend" pointer-events="all" transform="translate(567.56,100)"><rect class="bg" shape-rendering="crispEdges" style="stroke: rgb(68, 68, 68); stroke-opacity: 1; fill: rgb(255, 255, 255); fill-opacity: 1; stroke-width: 0px;" width="120" height="48" x="0" y="0"/><g class="scrollbox" transform="" clip-path="url('#legend066f25')"><g class="groups"><g class="traces" transform="translate(0,14.5)" style="opacity: 1;"><text class="legendtext" text-anchor="start" x="40" y="4.680000000000001" style="font-family: 'Open Sans', verdana, arial, sans-serif; font-size: 12px; fill: rgb(68, 68, 68); fill-opacity: 1; white-space: pre;">% by date</text><g class="layers" style="opacity: 1;"><g class="legendfill"/><g class="legendlines"><path class="js-line" d="M5,0h30" style="fill: none; stroke: rgb(31, 119, 180); stroke-opacity: 1; stroke-width: 2px;"/></g><g class="legendsymbols"><g class="legendpoints"/></g></g><rect class="legendtoggle" x="0" y="-9.5" width="114.8125" height="19" style="fill: rgb(0, 0, 0); fill-opacity: 0;"/></g><g class="traces" transform="translate(0,33.5)" style="opacity: 1;"><text class="legendtext" text-anchor="start" x="40" y="4.680000000000001" style="font-family: 'Open Sans', verdana, arial, sans-serif; font-size: 12px; fill: rgb(68, 68, 68); fill-opacity: 1; white-space: pre;">% by month</text><g class="layers" style="opacity: 1;"><g class="legendfill"/><g class="legendlines"><path class="js-line" d="M5,0h30" style="fill: none; stroke: rgb(255, 127, 14); stroke-opacity: 1; stroke-width: 2px;"/></g><g class="legendsymbols"><g class="legendpoints"><path class="scatterpts" transform="translate(20,0)" d="M3,0A3,3 0 1,1 0,-3A3,3 0 0,1 3,0Z" style="opacity: 1; stroke-width: 0px; fill: rgb(255, 127, 14); fill-opacity: 1;"/></g></g></g><rect class="legendtoggle" x="0" y="-9.5" width="114.8125" height="19" style="fill: rgb(0, 0, 0); fill-opacity: 0;"/></g></g></g><rect class="scrollbar" rx="20" ry="3" width="0" height="0" style="fill: rgb(128, 139, 164); fill-opacity: 1;" x="0" y="0"/></g><g class="g-gtitle"><text class="gtitle" x="350" y="50" text-anchor="middle" dy="0em" style="font-family: 'Open Sans', verdana, arial, sans-serif; font-size: 17px; fill: rgb(68, 68, 68); opacity: 1; font-weight: normal; white-space: pre;">Percent of Booked Airbnb Listings in NYC Over Time</text></g><g class="g-xtitle"/><g class="g-x2title"/><g class="g-ytitle"><text class="ytitle" transform="rotate(-90,42,178.75)" x="42" y="178.75" text-anchor="middle" style="font-family: 'Open Sans', verdana, arial, sans-serif; font-size: 14px; fill: rgb(68, 68, 68); opacity: 1; font-weight: normal; white-space: pre;">% Booked</text></g><g class="g-y2title"><text class="y2title" transform="rotate(-90,42,441.25)" x="42" y="441.25" text-anchor="middle" style="font-family: 'Open Sans', verdana, arial, sans-serif; font-size: 14px; fill: rgb(68, 68, 68); opacity: 1; font-weight: normal; white-space: pre;">% Booked</text></g></g></svg>