<svg class="main-svg" xmlns="http://www.w3.org/2000/svg" xmlns:xlink="http://www.w3.org/1999/xlink" width="700" height="500" style="" viewBox="0 0 700 500"><rect x="0" y="0" width="700" height="500" style="fill: rgb(255, 255, 255); fill-opacity: 1;"/><defs id="defs-47dbce"><g class="clips"><clipPath id="clip47dbcexyplot" class="plotclip"><rect width="540" height="320"/></clipPath><clipPath class="axesclip" id="clip47dbcex"><rect x="80" y="0" width="540" height="500"/></clipPath><clipPath class="axesclip" id="clip47dbcey"><rect x="0" y="100" width="700" height="320"/></clipPath><clipPath class="axesclip" id="clip47dbcexy"><rect x="80" y="100" width="540" height="320"/></clipPath></g><g class="gradients"/></defs><g class="bglayer"/><g class="layer-below"><g class="imagelayer"/><g class="shapelayer"/></g><g class="cartesianlayer"><g class="subplot xy"><g class="layer-subplot"><g class="shapelayer"/><g class="imagelayer"/></g><g class="gridlayer"><g class="x"><path class="xgrid crisp" transform="translate(122.78999999999999,0)" d="M0,100v320" style="stroke: rgb(238, 238, 238); stroke-opacity: 1; stroke-width: 1px;"/><path class="xgrid crisp" transform="translate(212.79,0)" d="M0,100v320" style="stroke: rgb(238, 238, 238); stroke-opacity: 1; stroke-width: 1px;"/><path class="xgrid crisp" transform="translate(299.84000000000003,0)" d="M0,100v320" style="stroke: rgb(238, 238, 238); stroke-opacity: 1; stroke-width: 1px;"/><path class="xgrid crisp" transform="translate(389.84,0)" d="M0,100v320" style="stroke: rgb(238, 238, 238); stroke-opacity: 1; stroke-width: 1px;"/><path class="xgrid crisp" transform="translate(479.84,0)" d="M0,100v320" style="stroke: rgb(238, 238, 238); stroke-opacity: 1; stroke-width: 1px;"/><path class="xgrid crisp" transform="translate(571.31,0)" d="M0,100v320" style="stroke: rgb(238, 238, 238); stroke-opacity: 1; stroke-width: 1px;"/></g><g class="y"><path class="ygrid crisp" transform="translate(0,343.21000000000004)" d="M80,0h540" style="stroke: rgb(238, 238, 238); stroke-opacity: 1; stroke-width: 1px;"/><path class="ygrid crisp" transform="translate(0,282.43)" d="M80,0h540" style="stroke: rgb(238, 238, 238); stroke-opacity: 1; stroke-width: 1px;"/><path class="ygrid crisp" transform="translate(0,221.64)" d="M80,0h540" style="stroke: rgb(238, 238, 238); stroke-opacity: 1; stroke-width: 1px;"/><path class="ygrid crisp" transform="translate(0,160.85)" d="M80,0h540" style="stroke: rgb(238, 238, 238); stroke-opacity: 1; stroke-width: 1px;"/></g></g><g class="zerolinelayer"><path class="yzl zl crisp" transform="translate(0,404)" d="M80,0h540" style="stroke: rgb(68, 68, 68); stroke-opacity: 1; stroke-width: 1px;"/></g><path class="xlines-below"/><path class="ylines-below"/><g class="overlines-below"/><g class="xaxislayer-below"/><g class="yaxislayer-below"/><g class="overaxes-below"/><g class="plot" transform="translate(80,100)" clip-path="url('#clip47dbcexyplot')"><g class="scatterlayer mlayer"><g class="trace scatter trace617d4b" style="stroke-miterlimit: 2; opacity: 1;"><g class="fills"/><g class="errorbars"/><g class="lines"><path class="js-line" d="M0,18.67L1.48,22.77L2.95,16.65L4.43,16L5.9,32.52L7.38,45.2L8.85,48.48L10.33,49.71L11.8,45.48L13.28,39.75L14.75,39.61L16.23,52.65L17.7,57.87L19.18,58.41L20.66,56.26L23.61,46.09L25.08,46.93L26.56,56.89L28.03,61.12L29.51,61.61L30.98,60.03L33.93,53.93L35.41,54.67L38.36,71.88L39.84,73.98L41.31,74.98L42.79,73.77L44.26,69.81L45.74,71.44L48.69,89.43L50.16,93.88L51.64,94.95L53.11,93.17L54.59,90.66L56.07,92.22L59.02,104.7L60.49,107.64L61.97,108.25L63.44,107.01L66.39,103.92L67.87,107.95L69.34,108.71L70.82,105.61L72.3,100.15L73.77,97.6L75.25,97.99L76.72,103.84L78.2,111.05L79.67,113.98L81.15,113.77L82.62,112.02L85.57,105.44L87.05,104.57L88.52,108.8L90,110.22L91.48,110.73L92.95,110.29L94.43,107.56L95.9,106.54L97.38,108.64L98.85,115.29L101.8,120.16L103.28,120.8L106.23,119.04L107.7,119.47L110.66,125.25L112.13,126.07L113.61,125.67L115.08,123.94L116.56,122.07L118.03,118.82L120.98,113.27L122.46,109.99L126.89,99.38L128.36,97.86L129.84,98.02L131.31,99.89L132.79,87.47L134.26,97.02L137.21,109.48L138.69,112.74L141.64,115.56L143.11,115.82L149.02,116.58L150.49,116.9L160.82,117.36L162.3,117.43L177.05,118.51L178.52,118.3L209.51,120.02L210.98,120.3L218.36,120.14L219.84,120.03L227.21,120.1L228.69,120.26L256.72,121.54L258.2,121.7L264.1,122.47L265.57,91.87L270,90.94L271.48,90.71L277.38,90.46L278.85,90.46L281.8,90.28L283.28,89.72L292.13,89.26L293.61,89.64L296.56,90.25L298.03,90.37L311.31,90.68L312.79,90.73L321.64,91.38L323.11,91.57L331.97,91.86L333.44,91.86L345.25,92.14L346.72,92.26L355.57,93.19L357.05,93.33L367.38,93.41L368.85,93.43L385.08,93.7L386.56,93.81L396.89,93.36L398.36,87.44L402.79,88.26L404.26,88.25L413.11,88.28L414.59,88.29L479.51,89.43L480.98,89.43L504.59,89.19L506.07,89.18L537.05,89.92L538.52,304L540,304" style="vector-effect: non-scaling-stroke; fill: none; stroke: rgb(31, 119, 180); stroke-opacity: 1; stroke-width: 2px; opacity: 1;"/></g><g class="points"/><g class="text"/></g></g></g><g class="overplot"/><path class="xlines-above crisp" d="M0,0" style="fill: none;"/><path class="ylines-above crisp" d="M0,0" style="fill: none;"/><g class="overlines-above"/><g class="xaxislayer-above"><g class="xtick"><text text-anchor="middle" x="0" y="433" transform="translate(122.78999999999999,0)" style="font-family: 'Open Sans', verdana, arial, sans-serif; font-size: 12px; fill: rgb(68, 68, 68); fill-opacity: 1; white-space: pre;">Nov 2018</text></g><g class="xtick"><text text-anchor="middle" x="0" y="433" transform="translate(212.79,0)" style="font-family: 'Open Sans', verdana, arial, sans-serif; font-size: 12px; fill: rgb(68, 68, 68); fill-opacity: 1; white-space: pre;">Jan 2019</text></g><g class="xtick"><text text-anchor="middle" x="0" y="433" transform="translate(299.84000000000003,0)" style="font-family: 'Open Sans', verdana, arial, sans-serif; font-size: 12px; fill: rgb(68, 68, 68); fill-opacity: 1; white-space: pre;">Mar 2019</text></g><g class="xtick"><text text-anchor="middle" x="0" y="433" transform="translate(389.84,0)" style="font-family: 'Open Sans', verdana, arial, sans-serif; font-size: 12px; fill: rgb(68, 68, 68); fill-opacity: 1; white-space: pre;">May 2019</text></g><g class="xtick"><text text-anchor="middle" x="0" y="433" transform="translate(479.84,0)" style="font-family: 'Open Sans', verdana, arial, sans-serif; font-size: 12px; fill: rgb(68, 68, 68); fill-opacity: 1; white-space: pre;">Jul 2019</text></g><g class="xtick"><text text-anchor="middle" x="0" y="433" transform="translate(571.31,0)" style="font-family: 'Open Sans', verdana, arial, sans-serif; font-size: 12px; fill: rgb(68, 68, 68); fill-opacity: 1; white-space: pre;">Sep 2019</text></g></g><g class="yaxislayer-above"><g class="ytick"><text text-anchor="end" x="79" y="4.199999999999999" transform="translate(0,404)" style="font-family: 'Open Sans', verdana, arial, sans-serif; font-size: 12px; fill: rgb(68, 68, 68); fill-opacity: 1; white-space: pre;">0</text></g><g class="ytick"><text text-anchor="end" x="79" y="4.199999999999999" transform="translate(0,343.21000000000004)" style="font-family: 'Open Sans', verdana, arial, sans-serif; font-size: 12px; fill: rgb(68, 68, 68); fill-opacity: 1; white-space: pre;">20</text></g><g class="ytick"><text text-anchor="end" x="79" y="4.199999999999999" transform="translate(0,282.43)" style="font-family: 'Open Sans', verdana, arial, sans-serif; font-size: 12px; fill: rgb(68, 68, 68); fill-opacity: 1; white-space: pre;">40</text></g><g class="ytick"><text text-anchor="end" x="79" y="4.199999999999999" transform="translate(0,221.64)" style="font-family: 'Open Sans', verdana, arial, sans-serif; font-size: 12px; fill: rgb(68, 68, 68); fill-opacity: 1; white-space: pre;">60</text></g><g class="ytick"><text text-anchor="end" x="79" y="4.199999999999999" transform="translate(0,160.85)" style="font-family: 'Open Sans', verdana, arial, sans-serif; font-size: 12px; fill: rgb(68, 68, 68); fill-opacity: 1; white-space: pre;">80</text></g><g class="ytick"><text text-anchor="end" x="79" y="4.199999999999999" transform="translate(0,100.07)" style="font-family: 'Open Sans', verdana, arial, sans-serif; font-size: 12px; fill: rgb(68, 68, 68); fill-opacity: 1; white-space: pre;">100</text></g></g><g class="overaxes-above"/></g></g><g class="polarlayer"/><g class="ternarylayer"/><g class="geolayer"/><g class="funnelarealayer"/><g class="pielayer"/><g class="treemaplayer"/><g class="sunburstlayer"/><g class="glimages"/><defs id="topdefs-47dbce"><g class="clips"/></defs><g class="layer-above"><g class="imagelayer"/><g class="shapelayer"/></g><g class="infolayer"><g class="g-gtitle"><text class="gtitle" x="350" y="50" text-anchor="middle" dy="0em" style="font-family: 'Open Sans', verdana, arial, sans-serif; font-size: 17px; fill: rgb(68, 68, 68); opacity: 1; font-weight: normal; white-space: pre;">Percent of Booked Airbnb Listings in NYC from Oct 2018 to Oct 2019</text></g><g class="g-xtitle"><text class="xtitle" x="350" y="472" text-anchor="middle" style="font-family: 'Open Sans', verdana, arial, sans-serif; font-size: 14px; fill: rgb(68, 68, 68); opacity: 1; font-weight: normal; white-space: pre;">Date</text></g><g class="g-ytitle"><text class="ytitle" transform="rotate(-90,42,260)" x="42" y="260" text-anchor="middle" style="font-family: 'Open Sans', verdana, arial, sans-serif; font-size: 14px; fill: rgb(68, 68, 68); opacity: 1; font-weight: normal; white-space: pre;">% Booked (log transformed)</text></g></g></svg>