<svg class="main-svg" xmlns="http://www.w3.org/2000/svg" xmlns:xlink="http://www.w3.org/1999/xlink" width="700" height="500" style="" viewBox="0 0 700 500"><rect x="0" y="0" width="700" height="500" style="fill: rgb(255, 255, 255); fill-opacity: 1;"/><defs id="defs-7d65ed"><g class="clips"><clipPath id="clip7d65edxyplot" class="plotclip"><rect width="473" height="320"/></clipPath><clipPath class="axesclip" id="clip7d65edx"><rect x="80" y="0" width="473" height="500"/></clipPath><clipPath class="axesclip" id="clip7d65edy"><rect x="0" y="100" width="700" height="320"/></clipPath><clipPath class="axesclip" id="clip7d65edxy"><rect x="80" y="100" width="473" height="320"/></clipPath></g><g class="gradients"/></defs><g class="bglayer"/><g class="layer-below"><g class="imagelayer"/><g class="shapelayer"/></g><g class="cartesianlayer"><g class="subplot xy"><g class="layer-subplot"><g class="shapelayer"/><g class="imagelayer"/></g><g class="gridlayer"><g class="x"><path class="xgrid crisp" transform="translate(98.17,0)" d="M0,100v320" style="stroke: rgb(238, 238, 238); stroke-opacity: 1; stroke-width: 1px;"/><path class="xgrid crisp" transform="translate(217.55,0)" d="M0,100v320" style="stroke: rgb(238, 238, 238); stroke-opacity: 1; stroke-width: 1px;"/><path class="xgrid crisp" transform="translate(334.99,0)" d="M0,100v320" style="stroke: rgb(238, 238, 238); stroke-opacity: 1; stroke-width: 1px;"/><path class="xgrid crisp" transform="translate(454.38,0)" d="M0,100v320" style="stroke: rgb(238, 238, 238); stroke-opacity: 1; stroke-width: 1px;"/></g><g class="y"><path class="ygrid crisp" transform="translate(0,379.61)" d="M80,0h473" style="stroke: rgb(238, 238, 238); stroke-opacity: 1; stroke-width: 1px;"/><path class="ygrid crisp" transform="translate(0,335.66999999999996)" d="M80,0h473" style="stroke: rgb(238, 238, 238); stroke-opacity: 1; stroke-width: 1px;"/><path class="ygrid crisp" transform="translate(0,291.74)" d="M80,0h473" style="stroke: rgb(238, 238, 238); stroke-opacity: 1; stroke-width: 1px;"/><path class="ygrid crisp" transform="translate(0,247.8)" d="M80,0h473" style="stroke: rgb(238, 238, 238); stroke-opacity: 1; stroke-width: 1px;"/><path class="ygrid crisp" transform="translate(0,203.87)" d="M80,0h473" style="stroke: rgb(238, 238, 238); stroke-opacity: 1; stroke-width: 1px;"/><path class="ygrid crisp" transform="translate(0,159.93)" d="M80,0h473" style="stroke: rgb(238, 238, 238); stroke-opacity: 1; stroke-width: 1px;"/><path class="ygrid crisp" transform="translate(0,116)" d="M80,0h473" style="stroke: rgb(238, 238, 238); stroke-opacity: 1; stroke-width: 1px;"/></g></g><g class="zerolinelayer"/><path class="xlines-below"/><path class="ylines-below"/><g class="overlines-below"/><g class="xaxislayer-below"/><g class="yaxislayer-below"/><g class="overaxes-below"/><g class="plot" transform="translate(80,100)" clip-path="url('#clip7d65edxyplot')"><g class="scatterlayer mlayer"><g class="trace scatter trace5d2f790" style="stroke-miterlimit: 2; opacity: 1;"><g class="fills"/><g class="errorbars"/><g class="lines"><path class="js-line" d="M0,31.69L1.3,135.45L1.95,145.7L3.24,128.78L3.89,130.84L5.19,168.77L5.84,177.49L6.49,176.97L7.14,169.28L7.79,165.7L8.43,173.39L10.38,186.71L11.03,180.05L12.33,175.95L12.98,177.49L14.92,213.89L15.57,211.32L16.22,205.68L16.87,187.74L17.52,193.89L18.17,210.81L19.47,223.11L20.11,221.06L23.36,240.54L24.01,237.98L25.3,237.47L25.95,233.88L26.6,231.32L27.25,234.9L28.55,244.13L29.2,240.54L30.5,233.88L31.14,236.96L31.79,239.52L32.44,247.21L33.09,248.75L33.74,247.21L35.04,239.01L35.69,240.54L36.98,259L37.63,260.54L38.28,263.1L38.93,261.05L40.23,251.82L40.88,257.46L41.53,257.46L42.17,258.49L43.47,259.51L44.12,255.92L45.42,266.18L46.07,271.3L46.72,275.4L47.36,274.38L48.01,279.51L48.66,275.4L49.31,272.84L49.96,277.46L50.61,278.99L51.26,283.09L52.56,285.66L53.2,284.12L53.85,282.58L54.5,289.25L55.8,292.32L56.45,290.27L57.1,289.76L57.75,280.02L59.04,220.55L59.69,236.96L60.99,241.06L61.64,241.06L62.29,241.06L62.94,242.08L65.53,233.37L66.18,237.98L67.48,233.37L68.13,235.42L68.78,239.01L69.43,237.98L70.07,238.49L70.72,237.47L72.67,243.62L73.32,243.62L73.97,244.13L74.62,241.57L75.26,242.08L75.91,244.64L77.86,248.75L78.51,249.26L79.81,245.67L80.46,248.23L81.75,252.33L82.4,251.82L83.7,253.87L84.35,251.31L85,252.33L85.65,251.31L86.29,254.9L86.94,254.39L87.59,253.87L88.24,255.41L88.89,254.9L89.54,254.39L90.19,252.85L91.49,251.31L92.13,252.33L92.78,252.33L93.43,254.9L95.38,256.95L96.03,256.95L97.33,257.46L97.97,259.51L99.27,264.13L99.92,263.1L100.57,261.56L101.22,262.08L107.06,266.18L107.71,268.23L109.65,268.23L110.3,266.69L111.6,264.64L112.25,265.66L112.9,266.18L113.55,265.15L114.19,266.18L114.84,265.15L115.49,265.66L116.14,264.13L117.44,202.61L118.09,203.12L120.68,204.66L121.33,204.15L122.63,206.71L123.28,206.2L125.87,206.71L126.52,205.17L129.12,205.17L129.77,203.63L132.36,198.51L133.01,199.02L134.31,199.53L134.96,199.02L135.61,198.51L136.26,196.46L137.55,197.99L138.2,200.56L139.5,205.17L140.15,205.17L141.45,204.15L142.09,203.63L142.74,203.12L143.39,203.63L144.69,204.15L145.34,204.15L146.64,203.63L147.29,203.63L152.48,204.15L153.12,204.66L157.02,204.15L157.67,205.68L158.32,207.22L158.96,206.71L167.4,206.2L168.05,205.68L169.35,206.2L169.99,206.2L171.29,206.71L171.94,207.22L174.54,207.22L175.19,204.66L175.83,197.99L176.48,199.02L177.13,198.51L178.43,197.99L179.08,197.99L191.41,197.99L192.05,198.51L199.19,199.02L199.84,199.53L202.44,199.53L203.09,200.56L204.38,200.56L205.03,199.53L219.31,200.04L219.95,200.56L227.09,200.56L227.74,201.07L234.88,201.07L235.53,200.04L236.18,190.58L236.82,151.59L237.47,134.39L238.12,138.41L238.77,137.58L239.42,127.93L240.07,122.48L240.72,151.83L242.02,169.02L242.66,168.6L243.96,158.12L244.61,163.15L245.91,193.33L246.56,197.1L247.21,193.33L247.85,177.82L249.15,163.57L249.8,179.08L251.1,199.2L251.75,197.94L252.4,195.01L253.05,181.17L253.69,182.43L254.34,200.46L255.64,222.26L256.29,222.26L257.59,211.78L258.24,218.49L260.18,244.06L260.83,240.7L261.48,239.03L262.13,233.16L262.78,233.58L263.43,243.64L265.37,243.22L266.02,246.15L266.67,241.54L267.32,245.73L267.97,246.15L268.62,252.02L269.27,251.6L269.91,253.28L271.21,246.57L271.86,238.61L273.16,252.86L273.81,259.57L274.46,265.44L275.11,259.15L276.4,246.99L277.05,251.18L279.65,267.53L280.3,262.5L281.59,272.15L282.24,273.4L284.19,268.37L284.84,267.95L285.49,265.02L286.14,266.28L286.78,268.37L287.43,267.12L288.08,265.44L288.73,267.95L289.38,269.63L290.03,273.4L291.98,286.82L292.62,283.88L293.27,277.6L293.92,257.89L294.57,244.9L295.22,216.81L296.52,236.93L297.17,234.42L297.81,232.32L298.46,234L299.11,233.58L299.76,231.48L300.41,232.32L301.06,231.06L302.36,228.97L303.01,231.48L304.3,234.42L304.95,234L305.6,235.67L306.25,232.74L307.55,231.06L308.2,233.58L310.79,240.7L311.44,239.87L312.09,235.67L312.74,238.61L314.04,246.99L314.68,245.73L315.98,245.73L316.63,248.25L317.28,247.41L317.93,247.83L318.58,246.57L319.23,248.67L320.52,244.9L321.17,245.73L321.82,244.48L322.47,247.83L323.12,248.67L323.77,246.99L324.42,246.57L325.07,247.41L325.71,246.57L326.36,246.99L327.01,246.99L327.66,246.15L328.31,247.83L328.96,246.57L330.91,246.57L331.55,249.51L332.85,252.02L333.5,249.93L334.15,249.09L334.8,250.77L336.1,250.35L336.74,252.86L337.39,253.28L338.04,255.8L339.99,255.8L340.64,257.05L343.23,257.89L343.88,256.63L345.83,259.15L346.48,257.47L347.13,257.47L347.78,256.22L349.07,254.96L349.72,254.54L350.37,254.54L351.02,257.47L352.32,256.22L352.97,234.84L354.26,197.1L354.91,198.78L355.56,199.62L356.21,198.78L357.51,198.78L358.16,199.2L360.75,202.97L361.4,202.97L363.35,202.14L364,202.55L364.64,203.39L365.29,202.55L365.94,202.14L366.59,199.2L367.89,195.43L368.54,192.07L369.84,187.46L370.48,185.37L372.43,183.27L373.08,184.53L373.73,184.95L374.38,189.14L376.32,202.97L376.97,203.81L378.27,205.91L378.92,206.75L381.51,208L382.16,207.17L383.46,207.59L384.11,207.17L386.06,207.59L386.71,207.59L388,208L388.65,207.59L393.84,207.17L394.49,205.07L395.79,205.91L396.44,205.49L399.68,205.49L400.33,205.91L406.82,206.33L407.47,206.75L410.71,207.17L411.36,202.97L412.66,195.85L413.31,195.01L414.6,196.27L415.25,196.27L434.07,196.27L434.72,195.85L436.67,196.27L437.31,196.27L450.29,195.85L450.94,195.43L452.89,195.01L453.53,195.85L461.97,196.27L462.62,196.69L465.86,196.27L466.51,195.85L468.46,195.85L469.11,196.69L471.05,197.1L471.7,197.52L472.35,197.1L473,214.62" style="vector-effect: non-scaling-stroke; fill: none; stroke: rgb(31, 119, 180); stroke-opacity: 1; stroke-width: 2px; opacity: 1;"/></g><g class="points"/><g class="text"/></g><g class="trace scatter trace5d2f791" style="stroke-miterlimit: 2; opacity: 1;"><g class="fills"/><g class="errorbars"/><g class="lines"><path class="js-line" d="M0,29.32L1.3,69.07L1.95,73.89L2.6,74.97L3.24,70.28L3.89,68.51L4.54,84.98L5.84,99.51L6.49,99.29L7.79,88.1L8.43,88.56L9.08,103.43L10.38,109.89L11.03,108.43L12.98,95.09L13.63,107.24L14.92,117.39L15.57,119.52L16.87,116.64L17.52,121.05L18.82,134.57L19.47,135.89L20.11,135.65L20.76,136.78L21.41,136.51L22.06,137.97L22.71,142.8L23.36,140.61L25.3,136.4L25.95,133.46L26.6,133.73L27.25,138.79L27.9,141.03L28.55,140.61L29.2,139.61L30.5,137.33L31.14,137.64L32.44,143.02L33.09,142.93L35.04,139.61L35.69,142.2L36.98,151.07L37.63,152.42L38.93,149.77L39.58,150.12L41.53,156.47L42.17,155.35L43.47,154.99L44.12,155.06L46.72,164.88L47.36,164.33L48.66,163.8L49.31,165.35L50.61,170.73L51.26,171.34L51.91,170.28L52.56,167.23L53.2,161.25L53.85,161.32L54.5,165.33L55.8,178.03L56.45,178.98L57.75,177.78L58.4,161.14L59.04,135.39L59.69,137.58L60.34,136.6L62.94,129.74L63.59,131.4L64.88,131.14L65.53,130.25L66.83,128.64L67.48,128.35L68.78,131.14L69.43,131.89L70.07,132.31L70.72,131.11L72.02,131.82L72.67,134.88L73.97,137.07L74.62,137.35L75.91,138.15L76.56,139.26L77.21,143.29L77.86,141.67L78.51,141.8L79.16,141.12L80.46,139.32L81.1,140.03L83.05,145.19L83.7,145.28L85,145.32L85.65,144.97L87.59,146.18L88.24,146.14L89.54,145.32L90.19,144.72L92.13,145.48L92.78,145.01L93.43,144.46L94.08,144.99L97.97,149.68L98.62,149.84L99.92,153.44L100.57,155.99L102.52,158.69L103.16,159.4L107.06,161.81L107.71,162.01L110.3,160.72L110.95,159.93L111.6,159.55L112.25,160.19L114.84,162.87L115.49,162.76L116.14,162.91L116.79,148.82L117.44,126.95L118.09,127.04L118.74,126.84L121.33,127.2L121.98,127.8L123.93,129.15L124.58,128.9L127.82,129.32L128.47,129.3L130.42,128.77L131.06,127.71L133.66,123.57L134.31,123.44L135.61,122.79L136.26,122.93L136.9,123.66L137.55,130.63L139.5,136.87L140.15,137.73L141.45,138.66L142.09,138.77L149.23,139.5L149.88,139.52L153.12,139.48L153.77,139.52L157.02,139.37L157.67,140.63L163.51,141.07L164.16,141.18L171.94,141.63L172.59,141.71L174.54,141.56L175.19,138.7L175.83,134.21L176.48,134.37L177.13,134.57L194,134.54L194.65,134.59L197.25,134.9L197.89,134.79L200.49,134.77L201.14,134.92L204.38,135.05L205.03,135.03L225.15,135.85L225.79,135.81L234.88,135.94L235.53,136.14L236.18,127.63L236.82,102.94L237.47,69.18L238.12,71.06L238.77,71.11L239.42,64.22L240.07,64.44L240.72,80.72L242.02,92.62L242.66,94.2L243.31,91.85L243.96,85.24L244.61,85.15L245.26,99.42L246.56,106.62L247.21,105.04L249.15,89.28L249.8,104.58L251.1,114.14L251.75,111.56L253.69,96.06L254.34,114.98L255.64,133.5L256.29,131.53L256.94,128.48L257.59,129.51L258.24,132.56L258.88,140.7L260.18,143.57L260.83,142.06L262.78,136.77L263.43,142.15L264.72,144.63L265.37,144.17L267.32,143.49L267.97,147.44L269.27,149.08L269.91,147.57L271.21,143.95L271.86,144.61L273.16,152.77L273.81,154.37L274.46,156.46L275.11,153.28L275.75,152.88L276.4,153.39L278.35,156.13L279,155.36L280.3,153.3L280.95,154.86L282.89,162.98L283.54,163.33L284.84,163.46L285.49,165.28L286.78,170L287.43,169.91L288.08,169.45L288.73,167.83L289.38,162.93L290.03,163.37L290.68,168.26L291.98,174.39L292.62,173.91L293.92,171.05L294.57,167.58L295.22,135.76L295.87,139.08L296.52,138.29L297.17,137.52L297.81,134.64L299.11,131.37L299.76,133.61L301.06,132.97L301.71,132.47L303.01,131.15L303.65,132.36L304.95,136L305.6,136.46L307.55,134.27L308.2,135.56L310.14,142.37L310.79,142.04L312.09,140.83L312.74,142.63L314.04,149.04L314.68,147.42L315.33,147.31L315.98,145.51L316.63,143.57L317.28,144.34L318.58,147.22L319.23,147.17L321.17,145.66L321.82,145.88L323.77,148.75L324.42,148.4L326.36,146.95L327.01,148.38L328.96,147.17L329.61,147.66L330.91,148.82L331.55,150.88L333.5,153.19L334.15,153.21L335.45,153.87L336.1,156.28L338.04,161.77L338.69,162.03L341.94,165.81L342.58,166.07L343.88,166.68L344.53,167.17L345.83,168.09L346.48,168.11L348.42,168.16L349.07,167.69L350.37,167.34L351.02,166.18L352.32,164.09L352.97,157.95L353.61,126L354.26,126.83L354.91,127.09L356.21,127.05L356.86,126.52L358.16,126.85L358.81,127.8L364.64,130.45L365.29,130.12L367.24,128.41L367.89,126.92L371.78,119.65L372.43,118.99L373.73,119.98L374.38,126.04L376.32,134.84L376.97,136.24L380.87,137.65L381.51,137.45L389.95,137.91L390.6,137.83L393.84,138.11L394.49,139.51L410.06,140.09L410.71,139.98L411.36,138.48L412.01,129.79L432.12,129.97L432.77,129.9L434.72,130.12L435.37,130.03L447.7,130.23L448.34,130.17L452.24,130.69L452.89,131.28L472.35,131.66L473,178.3" style="vector-effect: non-scaling-stroke; fill: none; stroke: rgb(255, 127, 14); stroke-opacity: 1; stroke-width: 2px; opacity: 1;"/></g><g class="points"/><g class="text"/></g><g class="trace scatter trace5d2f792" style="stroke-miterlimit: 2; opacity: 1;"><g class="fills"/><g class="errorbars"/><g class="lines"><path class="js-line" d="M0,26.63L1.3,56.99L1.95,59.88L2.6,63.83L3.24,62.76L3.89,64.89L4.54,81.06L5.19,83.64L5.84,83.27L6.49,82.55L8.43,87.24L9.08,97.66L11.68,86.85L12.33,83.45L12.98,84.66L13.63,98.8L14.92,108.18L15.57,108.83L16.22,109.4L16.87,108.09L18.17,124.32L18.82,130.63L20.11,132.84L20.76,133.55L22.06,133.31L22.71,135.21L24.01,125.84L24.66,124.57L25.95,124.71L26.6,125.47L27.25,130.34L27.9,128.31L29.85,125.16L30.5,126.72L31.14,126.63L31.79,129.03L32.44,128.85L33.09,127.78L34.39,128.72L35.04,130.79L36.98,138.38L37.63,139.65L38.28,137.69L38.93,138.22L40.88,145.26L41.53,144.28L42.17,143.35L42.82,144.44L44.12,146.81L44.77,149.6L45.42,155.33L46.07,155.25L46.72,155.74L49.31,160.55L49.96,163.88L50.61,162.37L51.26,162.9L52.56,164.15L53.2,165.95L53.85,166.3L54.5,169.33L55.8,170.88L56.45,170.61L57.75,167.3L58.4,148.96L59.04,129.44L59.69,134.19L62.94,124.34L63.59,127.15L66.83,121.44L67.48,121.21L68.13,123.99L68.78,123.77L69.43,122.73L71.37,120.7L72.02,121.21L73.32,125.12L73.97,125.3L76.56,128.37L77.21,133.27L78.51,130.5L79.16,128.44L80.46,126.37L81.1,126.53L82.4,133.22L83.05,133.9L85,132.71L85.65,133.41L86.94,136.85L87.59,136.85L88.89,135.35L89.54,135.7L90.19,134.98L90.84,135.48L93.43,134.55L94.08,135.78L96.03,139.26L96.68,138.71L97.97,133.72L98.62,131.12L99.92,136.83L100.57,142.97L101.87,148.51L102.52,149.02L106.41,154.63L107.06,154.55L107.71,155.31L108.36,154.82L109,155.43L109.65,154.92L111.6,150.95L112.25,151.54L114.19,156.6L114.84,155.92L116.14,152.85L116.79,139.02L117.44,118.47L118.09,119.23L118.74,119.74L120.03,119.49L120.68,118.55L121.98,119.66L122.63,121.93L123.93,124.16L124.58,124.3L125.87,124.38L126.52,124.32L127.82,125.96L128.47,125.53L130.42,124.92L131.06,122.23L134.31,112.66L134.96,111.12L136.26,110.3L136.9,110.65L138.85,127.56L139.5,130.11L141.45,134.04L142.09,134.17L146.64,134.9L147.29,134.98L157.02,135.64L157.67,136.95L161.56,137.22L162.21,137.52L165.45,137.56L166.1,137.67L172.59,138.01L173.24,137.93L174.54,137.79L175.19,134.6L176.48,129.56L177.13,129.4L182.32,129.32L182.97,129.3L186.86,129.15L187.51,129.23L191.41,129.27L192.05,129.27L195.3,129.34L195.95,128.89L198.54,128.91L199.19,128.66L202.44,129.17L203.09,129.03L207.63,128.7L208.28,128.87L213.47,129.25L214.12,129.19L221.25,129.44L221.9,129.42L225.79,129.73L226.44,129.62L231.63,129.77L232.28,129.91L235.53,130.52L236.18,123.81L237.47,71.85L238.12,72.78L238.77,77.95L240.07,80.97L240.72,94.66L241.37,95.37L242.02,93.69L242.66,92.85L243.31,95.87L244.61,100.51L245.26,108.09L247.21,103.53L247.85,101.66L249.15,98.53L249.8,108.6L251.1,110.19L251.75,106.64L253.05,96.4L253.69,97.53L255.64,141.02L256.29,144.23L256.94,142.98L257.59,144.21L258.88,151.39L259.53,147.88L262.13,140.52L262.78,141.42L263.43,145.64L264.08,145.28L264.72,143.48L266.02,144.21L266.67,144.89L267.32,145.88L267.97,150.18L269.91,148.68L270.56,149.23L271.21,150.2L271.86,152.62L272.51,157.15L273.16,156.99L273.81,157.41L274.46,160.44L275.11,158.42L275.75,158.04L276.4,159.41L277.05,162.07L277.7,161.61L278.35,162.03L279.65,162.6L280.3,163.4L281.59,173.61L282.24,172.94L282.89,173.69L285.49,181.77L286.14,185.22L288.73,185.3L289.38,185.65L290.03,186.09L290.68,188.31L291.33,187.78L291.98,188.55L292.62,187.86L293.27,185.95L294.57,180.54L295.22,158.16L295.87,162.11L296.52,160.96L299.11,151.75L299.76,154.01L303.65,147.33L304.3,150.16L306.25,149.19L306.9,148.12L307.55,147.63L308.2,148.6L309.49,152.47L310.14,152.39L312.74,155.5L313.39,160.52L314.04,163.73L314.68,159.79L316.63,153.1L317.28,153.76L318.58,159.41L319.23,160.02L320.52,158.91L321.17,158.2L321.82,158.71L322.47,160.6L323.77,161.89L324.42,161.85L326.36,160.12L327.01,162.4L328.96,161.83L329.61,162.44L332.2,164.96L332.85,164.9L333.5,164.51L334.15,162.7L334.8,159.03L335.45,159.51L336.1,162.52L338.04,173.26L338.69,174.57L339.99,176.59L340.64,178.35L341.94,179.54L342.58,179.15L343.88,179.13L344.53,179.51L345.83,181.21L346.48,181.43L348.42,181.69L349.07,181.07L349.72,181.27L350.37,180.18L352.32,174.49L352.97,168.28L354.26,145.82L354.91,145.3L356.21,143.34L356.86,142.03L357.51,141.5L358.16,142.41L360.1,147.94L360.75,148.52L362.7,149.01L363.35,150.68L364.64,151.93L365.29,151.59L366.59,151.16L367.24,149.71L369.84,144.31L370.48,142.43L373.08,138.42L373.73,138.8L375.67,153.93L376.32,155.6L377.62,157.54L378.27,157.76L381.51,158.36L382.16,158.18L393.84,158.64L394.49,159.79L396.44,159.51L397.09,159.45L404.87,159.43L405.52,159.49L410.71,159.87L411.36,158.12L412.66,150.11L413.31,149.97L426.28,149.73L426.93,149.03L429.53,149.11L430.18,149.07L434.07,148.24L434.72,148.14L436.67,147.55L437.31,147.53L443.15,147.59L443.8,147.78L447.7,148.36L448.34,148.32L452.24,148.12L452.89,148.12L471.7,149.11L472.35,150.66L473,198.97" style="vector-effect: non-scaling-stroke; fill: none; stroke: rgb(44, 160, 44); stroke-opacity: 1; stroke-width: 2px; opacity: 1;"/></g><g class="points"/><g class="text"/></g><g class="trace scatter trace5d2f793" style="stroke-miterlimit: 2; opacity: 1;"><g class="fills"/><g class="errorbars"/><g class="lines"><path class="js-line" d="M0,36.34L1.3,115.07L1.95,121.23L2.6,124.45L3.24,106.47L3.89,102.48L4.54,132.44L5.84,156.4L6.49,155.79L7.14,150.15L7.79,136.34L8.43,141.12L9.08,165.17L10.38,174.03L11.03,169.6L11.68,165.17L12.33,152.84L12.98,151.45L13.63,170.38L14.92,186.27L15.57,185.57L16.22,183.14L16.87,176.98L17.52,179.93L18.17,191.91L20.76,200.16L21.41,200.6L22.06,202.94L22.71,211.01L23.36,213.71L24.01,212.92L24.66,211.62L25.3,207.02L26.6,203.2L27.25,211.88L27.9,216.57L28.55,216.31L29.2,215.44L30.5,210.15L31.14,210.75L32.44,214.75L33.09,213.97L33.74,214.66L34.39,212.06L35.04,209.71L35.69,213.1L37.63,228.12L38.28,227.95L40.23,224.04L40.88,227.51L42.82,230.55L43.47,230.38L44.12,229.42L44.77,231.59L46.07,239.49L46.72,240.28L47.36,242.88L48.01,242.19L48.66,240.71L49.31,242.36L50.61,250.09L51.26,249.31L52.56,247.31L53.2,244.01L53.85,243.14L54.5,244.27L55.8,247.83L56.45,246.53L57.75,237.84L58.4,223L59.04,183.92L59.69,198.34L60.34,203.55L60.99,202.33L62.94,196.86L63.59,199.99L64.23,200.68L64.88,199.73L65.53,199.03L66.18,199.64L66.83,199.12L67.48,199.99L68.13,202.07L68.78,201.81L69.43,202.42L71.37,199.64L72.02,201.46L72.67,201.98L73.32,204.42L73.97,205.02L74.62,204.42L76.56,208.5L77.21,210.75L78.51,210.32L79.16,210.41L80.46,210.06L81.1,211.36L82.4,213.01L83.05,212.58L84.35,213.1L85,212.4L85.65,212.06L86.29,213.36L87.59,213.79L88.24,213.53L90.19,212.49L90.84,213.19L92.13,215.88L92.78,215.1L94.73,214.66L95.38,216.31L96.68,217.27L97.33,217.09L98.62,215.01L99.27,216.22L99.92,217.61L100.57,220.83L101.87,222.39L102.52,223.34L105.11,226.73L105.76,226.82L110.3,225.95L110.95,224.73L111.6,224.21L112.25,224.99L112.9,225.08L113.55,226.38L115.49,227.86L116.14,227.34L116.79,214.4L117.44,172.29L118.09,172.64L118.74,172.03L121.33,171.86L121.98,171.68L123.28,172.81L123.93,173.16L125.87,173.24L126.52,173.59L129.12,172.9L129.77,171.86L131.71,169.34L132.36,166.91L134.96,162.3L135.61,161.7L136.9,162.13L137.55,168.64L139.5,176.2L140.15,178.02L142.74,179.41L143.39,179.32L146.64,179.76L147.29,179.58L154.42,180.02L155.07,179.84L174.54,179.76L175.19,178.02L176.48,172.81L177.13,172.72L182.32,172.72L182.97,172.64L186.22,172.38L186.86,172.46L195.3,172.98L195.95,173.94L214.76,174.11L215.41,174.46L219.31,174.72L219.95,174.72L225.79,174.89L226.44,174.81L233.58,175.15L234.23,174.98L235.53,175.42L236.18,163.98L237.47,108.75L238.12,110.27L238.77,110.19L239.42,99.5L240.07,100.44L240.72,129.3L242.02,155.63L242.66,155.4L244.61,134.56L245.26,158.62L245.91,169.55L246.56,168.69L247.21,168.45L248.5,148.48L249.15,149.58L249.8,162.95L251.1,176.39L251.75,176.47L253.69,153.83L254.34,179.06L255.64,196.2L256.29,191.49L256.94,185.67L257.59,187.32L259.53,210.59L260.18,210.2L261.48,205.32L262.13,201.55L262.78,201.79L263.43,210.99L264.72,216.02L265.37,215.23L266.02,215.31L266.67,211.14L267.32,212.32L267.97,220.26L268.62,224.04L269.27,222.31L270.56,219.08L271.21,214.05L271.86,214.76L272.51,222.78L273.81,229.78L274.46,232.92L275.11,230.72L275.75,224.43L276.4,224.67L277.05,230.33L278.35,234.34L279,234.18L280.3,230.8L280.95,231.35L282.24,241.02L282.89,242.59L283.54,241.1L284.19,241.88L284.84,240L285.49,242.44L287.43,247.62L288.08,247.47L288.73,247.07L289.38,243.77L290.03,241.26L290.68,242.44L292.62,241.1L293.27,236.85L294.57,229.38L295.22,187.32L296.52,205.09L297.17,204.3L299.11,199.19L299.76,202.89L301.06,206.66L301.71,203.91L303.01,203.99L303.65,203.04L304.95,205.4L305.6,204.93L306.9,205.25L307.55,203.2L310.14,211.06L310.79,212.17L312.09,211.22L312.74,212.32L314.04,216.88L314.68,216.88L315.33,216.65L315.98,215L316.63,215.78L317.28,214.45L318.58,216.88L319.23,216.33L320.52,217.9L321.17,217.59L321.82,217.12L322.47,219.4L323.12,221.44L323.77,220.03L324.42,219.63L325.07,218.22L326.36,218.38L327.01,218.45L329.61,220.81L330.26,220.18L332.85,224.27L333.5,224.12L334.15,223.8L334.8,224.51L337.39,229.23L338.04,229.86L339.99,232.14L340.64,233.39L343.88,234.26L344.53,234.65L345.18,235.67L345.83,235.04L349.72,234.65L350.37,234.97L352.32,230.33L352.97,223.41L354.26,175.05L354.91,176.16L355.56,176.08L356.21,176.78L358.81,177.89L359.45,177.89L361.4,179.3L362.05,179.22L363.35,180.24L364,179.93L365.94,178.75L366.59,177.81L369.84,171.28L370.48,169.47L372.43,168.84L373.08,169L373.73,168.92L374.38,172.46L376.97,182.52L377.62,182.68L379.57,182.92L380.22,183.23L393.84,183.78L394.49,185.2L397.74,185.2L398.38,185.2L409.41,185.59L410.06,185.83L410.71,185.83L411.36,184.41L412.01,168.84L412.66,169.24L413.31,169L417.2,168.77L417.85,168.77L428.23,169.16L428.88,168.53L432.77,168.92L433.42,169.55L452.89,169.87L453.53,169.94L461.32,170.18L461.97,170.18L464.57,170.18L465.21,170.18L472.35,170.57L473,208.05" style="vector-effect: non-scaling-stroke; fill: none; stroke: rgb(214, 39, 40); stroke-opacity: 1; stroke-width: 2px; opacity: 1;"/></g><g class="points"/><g class="text"/></g><g class="trace scatter trace5d2f794" style="stroke-miterlimit: 2; opacity: 1;"><g class="fills"/><g class="errorbars"/><g class="lines"><path class="js-line" d="M0,16L1.3,120.33L1.95,136.49L2.6,139.43L3.24,148.24L3.89,126.2L4.54,149.71L5.84,179.1L6.49,182.04L7.14,184.98L7.79,177.63L8.43,170.29L9.08,186.45L9.73,195.27L10.38,190.86L11.03,198.2L11.68,193.8L12.33,176.16L12.98,184.98L13.63,190.86L14.27,209.96L15.57,217.31L16.22,209.96L17.52,196.73L18.17,208.49L18.82,207.02L19.47,211.43L20.11,204.08L20.76,205.55L21.41,198.2L22.06,201.14L23.36,220.24L24.01,218.78L25.95,251.1L26.6,248.16L27.9,243.76L28.55,249.63L31.79,220.24L32.44,237.88L33.09,230.53L33.74,248.16L35.04,233.47L35.69,236.41L36.33,248.16L36.98,246.69L37.63,255.51L38.93,243.76L39.58,245.22L41.53,258.45L42.17,251.1L42.82,254.04L43.47,252.57L44.12,256.98L44.77,254.04L47.36,276.08L48.01,273.14L48.66,273.14L49.31,271.67L50.61,287.84L51.26,281.96L52.56,289.31L53.2,287.84L54.5,284.9L55.15,293.71L56.45,302.53L57.1,304L57.75,295.18L58.4,304L59.04,258.45L59.69,265.8L60.34,265.8L60.99,267.27L62.29,254.04L62.94,252.57L64.23,252.57L64.88,248.16L65.53,248.16L66.18,251.1L67.48,255.51L68.13,248.16L71.37,262.86L72.02,261.39L73.32,265.8L73.97,261.39L74.62,262.86L75.26,255.51L76.56,252.57L77.21,254.04L78.51,261.39L79.16,262.86L79.81,264.33L80.46,261.39L81.1,264.33L81.75,271.67L83.05,279.02L83.7,279.02L84.35,281.96L85,280.49L85.65,276.08L86.29,279.02L87.59,289.31L88.24,284.9L90.19,279.02L90.84,279.02L92.13,284.9L92.78,284.9L93.43,286.37L94.08,283.43L96.68,287.84L97.33,283.43L97.97,277.55L98.62,243.76L99.27,201.14L99.92,245.22L101.22,293.71L101.87,296.65L102.52,298.12L103.16,295.18L104.46,292.24L105.11,296.65L105.76,296.65L106.41,298.12L107.06,296.65L107.71,292.24L108.36,293.71L109,292.24L109.65,298.12L110.3,293.71L111.6,284.9L112.25,284.9L114.19,296.65L114.84,299.59L116.14,296.65L116.79,290.78L118.09,264.33L118.74,267.27L120.03,267.27L120.68,268.73L122.63,258.45L123.28,265.8L123.93,267.27L124.58,264.33L125.22,265.8L125.87,264.33L127.17,264.33L127.82,267.27L128.47,270.2L129.12,268.73L129.77,268.73L130.42,261.39L131.71,251.1L132.36,252.57L133.01,251.1L133.66,252.57L134.96,249.63L135.61,248.16L137.55,252.57L138.2,256.98L138.85,258.45L139.5,264.33L140.8,268.73L141.45,268.73L143.39,268.73L144.04,270.2L146.64,274.61L147.29,274.61L147.93,274.61L148.58,273.14L149.88,273.14L150.53,274.61L151.83,273.14L152.48,273.14L153.77,271.67L154.42,271.67L155.72,273.14L156.37,273.14L157.02,273.14L157.67,268.73L175.19,268.73L175.83,258.45L177.13,259.92L177.78,259.92L188.81,259.92L189.46,258.45L190.76,256.98L191.41,256.98L192.7,258.45L193.35,258.45L194,258.45L194.65,256.98L195.3,255.51L195.95,258.45L197.89,258.45L198.54,256.98L199.19,256.98L199.84,258.45L202.44,258.45L203.09,259.92L203.73,259.92L204.38,256.98L205.03,256.98L205.68,255.51L209.57,255.51L210.22,256.98L211.52,256.98L212.17,254.04L214.12,254.04L214.76,255.51L215.41,255.51L216.06,252.57L218.01,252.57L218.66,254.04L219.31,255.51L219.95,252.57L221.25,251.1L221.9,254.04L224.5,254.04L225.15,256.98L233.58,256.98L234.23,258.45L235.53,258.45L236.18,243.91L237.47,133.87L238.12,144.35L238.77,139.41L239.42,127.07L240.72,161.63L241.37,186.31L243.31,188.78L243.96,181.37L244.61,173.97L245.26,182.61L245.91,199.88L246.56,196.18L247.21,193.71L247.85,183.84L248.5,175.2L249.15,181.37L251.1,201.12L251.75,194.95L252.4,182.61L253.05,183.84L253.69,180.14L254.34,212.23L254.99,210.99L255.64,204.82L256.29,196.18L256.94,197.42L257.59,202.35L259.53,234.44L260.18,233.21L261.48,225.8L262.13,217.16L262.78,217.16L263.43,224.57L264.72,235.67L265.37,233.21L266.02,218.4L266.67,220.86L267.97,230.74L268.62,239.38L269.27,236.91L269.91,240.61L271.21,236.91L271.86,250.48L273.81,273.93L274.46,280.1L275.11,277.63L275.75,271.46L277.05,277.63L277.7,271.46L279.65,283.8L280.3,273.93L280.95,273.93L281.59,291.21L282.24,291.21L282.89,294.91L284.19,283.8L284.84,289.97L286.14,297.38L286.78,296.15L288.08,289.97L288.73,291.21L289.38,289.97L290.03,297.38L290.68,291.21L291.33,293.68L291.98,287.51L292.62,291.21L293.27,289.97L293.92,291.21L294.57,294.91L295.22,252.95L295.87,257.89L296.52,256.65L297.81,249.25L298.46,249.25L299.11,250.48L299.76,259.12L300.41,257.89L301.06,264.06L301.71,264.06L302.36,270.23L303.01,270.23L303.65,272.7L304.3,271.46L304.95,267.76L307.55,273.93L308.2,268.99L308.84,270.23L309.49,276.4L311.44,266.53L312.09,261.59L312.74,261.59L313.39,264.06L314.68,273.93L315.33,272.7L315.98,277.63L316.63,275.17L319.23,285.04L319.88,281.34L321.17,280.1L321.82,276.4L323.77,285.04L324.42,286.27L325.07,285.04L325.71,277.63L326.36,277.63L327.01,278.87L328.31,282.57L328.96,282.57L331.55,287.51L332.2,286.27L332.85,285.04L333.5,281.34L334.15,272.7L334.8,228.27L335.45,185.07L336.1,239.38L337.39,285.04L338.04,292.44L340.64,298.61L341.29,297.38L341.94,301.08L342.58,299.85L345.18,303.55L345.83,303.55L347.13,302.32L347.78,302.32L352.32,287.51L352.97,291.21L353.61,248.01L354.26,251.72L354.91,250.48L355.56,250.48L356.21,245.55L358.81,245.55L359.45,246.78L360.75,251.72L361.4,250.48L363.35,256.65L364,256.65L365.29,256.65L365.94,251.72L369.19,240.61L369.84,239.38L370.48,238.14L371.13,230.74L373.08,233.21L373.73,233.21L375.03,241.84L375.67,250.48L376.97,257.89L377.62,256.65L381.51,256.65L382.16,257.89L384.76,257.89L385.41,256.65L388.65,256.65L389.3,255.42L393.19,255.42L393.84,256.65L395.14,255.42L395.79,255.42L403.57,255.42L404.22,256.65L406.82,256.65L407.47,255.42L408.77,255.42L409.41,256.65L411.36,256.65L412.01,236.91L412.66,238.14L413.31,231.97L416.55,231.97L417.2,230.74L417.85,230.74L418.5,231.97L421.09,231.97L421.74,230.74L423.69,230.74L424.34,231.97L428.88,231.97L429.53,230.74L430.18,230.74L430.83,229.5L434.72,229.5L435.37,230.74L436.02,230.74L436.67,229.5L438.61,229.5L439.26,230.74L440.56,230.74L441.21,231.97L446.4,231.97L447.05,230.74L448.34,229.5L448.99,229.5L450.29,228.27L450.94,230.74L452.24,231.97L452.89,231.97L463.27,231.97L463.92,230.74L467.81,230.74L468.46,231.97L471.7,231.97L472.35,233.21L473,260.7" style="vector-effect: non-scaling-stroke; fill: none; stroke: rgb(148, 103, 189); stroke-opacity: 1; stroke-width: 2px; opacity: 1;"/></g><g class="points"/><g class="text"/></g></g></g><g class="overplot"/><path class="xlines-above crisp" d="M0,0" style="fill: none;"/><path class="ylines-above crisp" d="M0,0" style="fill: none;"/><g class="overlines-above"/><g class="xaxislayer-above"><g class="xtick"><text text-anchor="middle" x="0" y="433" transform="translate(98.17,0)" style="font-family: 'Open Sans', verdana, arial, sans-serif; font-size: 12px; fill: rgb(68, 68, 68); fill-opacity: 1; white-space: pre;">Jul 2018</text></g><g class="xtick"><text text-anchor="middle" x="0" y="433" transform="translate(217.55,0)" style="font-family: 'Open Sans', verdana, arial, sans-serif; font-size: 12px; fill: rgb(68, 68, 68); fill-opacity: 1; white-space: pre;">Jan 2019</text></g><g class="xtick"><text text-anchor="middle" x="0" y="433" transform="translate(334.99,0)" style="font-family: 'Open Sans', verdana, arial, sans-serif; font-size: 12px; fill: rgb(68, 68, 68); fill-opacity: 1; white-space: pre;">Jul 2019</text></g><g class="xtick"><text text-anchor="middle" x="0" y="433" transform="translate(454.38,0)" style="font-family: 'Open Sans', verdana, arial, sans-serif; font-size: 12px; fill: rgb(68, 68, 68); fill-opacity: 1; white-space: pre;">Jan 2020</text></g></g><g class="yaxislayer-above"><g class="ytick"><text text-anchor="end" x="79" y="4.199999999999999" transform="translate(0,379.61)" style="font-family: 'Open Sans', verdana, arial, sans-serif; font-size: 12px; fill: rgb(68, 68, 68); fill-opacity: 1; white-space: pre;">40</text></g><g class="ytick"><text text-anchor="end" x="79" y="4.199999999999999" transform="translate(0,335.66999999999996)" style="font-family: 'Open Sans', verdana, arial, sans-serif; font-size: 12px; fill: rgb(68, 68, 68); fill-opacity: 1; white-space: pre;">50</text></g><g class="ytick"><text text-anchor="end" x="79" y="4.199999999999999" transform="translate(0,291.74)" style="font-family: 'Open Sans', verdana, arial, sans-serif; font-size: 12px; fill: rgb(68, 68, 68); fill-opacity: 1; white-space: pre;">60</text></g><g class="ytick"><text text-anchor="end" x="79" y="4.199999999999999" transform="translate(0,247.8)" style="font-family: 'Open Sans', verdana, arial, sans-serif; font-size: 12px; fill: rgb(68, 68, 68); fill-opacity: 1; white-space: pre;">70</text></g><g class="ytick"><text text-anchor="end" x="79" y="4.199999999999999" transform="translate(0,203.87)" style="font-family: 'Open Sans', verdana, arial, sans-serif; font-size: 12px; fill: rgb(68, 68, 68); fill-opacity: 1; white-space: pre;">80</text></g><g class="ytick"><text text-anchor="end" x="79" y="4.199999999999999" transform="translate(0,159.93)" style="font-family: 'Open Sans', verdana, arial, sans-serif; font-size: 12px; fill: rgb(68, 68, 68); fill-opacity: 1; white-space: pre;">90</text></g><g class="ytick"><text text-anchor="end" x="79" y="4.199999999999999" transform="translate(0,116)" style="font-family: 'Open Sans', verdana, arial, sans-serif; font-size: 12px; fill: rgb(68, 68, 68); fill-opacity: 1; white-space: pre;">100</text></g></g><g class="overaxes-above"/></g></g><g class="polarlayer"/><g class="ternarylayer"/><g class="geolayer"/><g class="funnelarealayer"/><g class="pielayer"/><g class="treemaplayer"/><g class="sunburstlayer"/><g class="glimages"/><defs id="topdefs-7d65ed"><g class="clips"/><clipPath id="legend7d65ed"><rect width="126" height="105" x="0" y="0"/></clipPath></defs><g class="layer-above"><g class="imagelayer"/><g class="shapelayer"/></g><g class="infolayer"><g class="legend" pointer-events="all" transform="translate(562.46,100)"><rect class="bg" shape-rendering="crispEdges" style="stroke: rgb(68, 68, 68); stroke-opacity: 1; fill: rgb(255, 255, 255); fill-opacity: 1; stroke-width: 0px;" width="126" height="105" x="0" y="0"/><g class="scrollbox" transform="" clip-path="url('#legend7d65ed')"><g class="groups"><g class="traces" transform="translate(0,14.5)" style="opacity: 1;"><text class="legendtext" text-anchor="start" x="40" y="4.680000000000001" style="font-family: 'Open Sans', verdana, arial, sans-serif; font-size: 12px; fill: rgb(68, 68, 68); fill-opacity: 1; white-space: pre;">Bronx</text><g class="layers" style="opacity: 1;"><g class="legendfill"/><g class="legendlines"><path class="js-line" d="M5,0h30" style="fill: none; stroke: rgb(31, 119, 180); stroke-opacity: 1; stroke-width: 2px;"/></g><g class="legendsymbols"><g class="legendpoints"/></g></g><rect class="legendtoggle" x="0" y="-9.5" width="120.703125" height="19" style="fill: rgb(0, 0, 0); fill-opacity: 0;"/></g><g class="traces" transform="translate(0,33.5)" style="opacity: 1;"><text class="legendtext" text-anchor="start" x="40" y="4.680000000000001" style="font-family: 'Open Sans', verdana, arial, sans-serif; font-size: 12px; fill: rgb(68, 68, 68); fill-opacity: 1; white-space: pre;">Brooklyn</text><g class="layers" style="opacity: 1;"><g class="legendfill"/><g class="legendlines"><path class="js-line" d="M5,0h30" style="fill: none; stroke: rgb(255, 127, 14); stroke-opacity: 1; stroke-width: 2px;"/></g><g class="legendsymbols"><g class="legendpoints"/></g></g><rect class="legendtoggle" x="0" y="-9.5" width="120.703125" height="19" style="fill: rgb(0, 0, 0); fill-opacity: 0;"/></g><g class="traces" transform="translate(0,52.5)" style="opacity: 1;"><text class="legendtext" text-anchor="start" x="40" y="4.680000000000001" style="font-family: 'Open Sans', verdana, arial, sans-serif; font-size: 12px; fill: rgb(68, 68, 68); fill-opacity: 1; white-space: pre;">Manhattan</text><g class="layers" style="opacity: 1;"><g class="legendfill"/><g class="legendlines"><path class="js-line" d="M5,0h30" style="fill: none; stroke: rgb(44, 160, 44); stroke-opacity: 1; stroke-width: 2px;"/></g><g class="legendsymbols"><g class="legendpoints"/></g></g><rect class="legendtoggle" x="0" y="-9.5" width="120.703125" height="19" style="fill: rgb(0, 0, 0); fill-opacity: 0;"/></g><g class="traces" transform="translate(0,71.5)" style="opacity: 1;"><text class="legendtext" text-anchor="start" x="40" y="4.680000000000001" style="font-family: 'Open Sans', verdana, arial, sans-serif; font-size: 12px; fill: rgb(68, 68, 68); fill-opacity: 1; white-space: pre;">Queens</text><g class="layers" style="opacity: 1;"><g class="legendfill"/><g class="legendlines"><path class="js-line" d="M5,0h30" style="fill: none; stroke: rgb(214, 39, 40); stroke-opacity: 1; stroke-width: 2px;"/></g><g class="legendsymbols"><g class="legendpoints"/></g></g><rect class="legendtoggle" x="0" y="-9.5" width="120.703125" height="19" style="fill: rgb(0, 0, 0); fill-opacity: 0;"/></g><g class="traces" transform="translate(0,90.5)" style="opacity: 1;"><text class="legendtext" text-anchor="start" x="40" y="4.680000000000001" style="font-family: 'Open Sans', verdana, arial, sans-serif; font-size: 12px; fill: rgb(68, 68, 68); fill-opacity: 1; white-space: pre;">Staten Island</text><g class="layers" style="opacity: 1;"><g class="legendfill"/><g class="legendlines"><path class="js-line" d="M5,0h30" style="fill: none; stroke: rgb(148, 103, 189); stroke-opacity: 1; stroke-width: 2px;"/></g><g class="legendsymbols"><g class="legendpoints"/></g></g><rect class="legendtoggle" x="0" y="-9.5" width="120.703125" height="19" style="fill: rgb(0, 0, 0); fill-opacity: 0;"/></g></g></g><rect class="scrollbar" rx="20" ry="3" width="0" height="0" style="fill: rgb(128, 139, 164); fill-opacity: 1;" x="0" y="0"/></g><g class="g-gtitle"><text class="gtitle" x="350" y="50" text-anchor="middle" dy="0em" style="font-family: 'Open Sans', verdana, arial, sans-serif; font-size: 17px; fill: rgb(68, 68, 68); opacity: 1; font-weight: normal; white-space: pre;">Percent of Booked Airbnb Listings by Date and Borough</text></g><g class="g-xtitle"><text class="xtitle" x="316.5" y="472" text-anchor="middle" style="font-family: 'Open Sans', verdana, arial, sans-serif; font-size: 14px; fill: rgb(68, 68, 68); opacity: 1; font-weight: normal; white-space: pre;">Date</text></g><g class="g-ytitle"><text class="ytitle" transform="rotate(-90,42,260)" x="42" y="260" text-anchor="middle" style="font-family: 'Open Sans', verdana, arial, sans-serif; font-size: 14px; fill: rgb(68, 68, 68); opacity: 1; font-weight: normal; white-space: pre;">% Booked</text></g></g></svg>